<?xml version="1.0" encoding="UTF-8"?>
<!DOCTYPE svg PUBLIC "-//W3C//DTD SVG 1.1//EN" "http://www.w3.org/Graphics/SVG/1.1/DTD/svg11.dtd">
<svg xmlns="http://www.w3.org/2000/svg" version="1.1" width="500px" height="500px" style="shape-rendering:geometricPrecision; text-rendering:geometricPrecision; image-rendering:optimizeQuality; fill-rule:evenodd; clip-rule:evenodd" xmlns:xlink="http://www.w3.org/1999/xlink">
<g><path style="opacity:0.004" fill="#fefffe" d="M 127.5,-0.5 C 127.833,-0.5 128.167,-0.5 128.5,-0.5C 128.315,0.170143 127.981,0.170143 127.5,-0.5 Z"/></g>
<g><path style="opacity:0.004" fill="#fefffe" d="M 129.5,-0.5 C 129.833,-0.5 130.167,-0.5 130.5,-0.5C 130.315,0.170143 129.981,0.170143 129.5,-0.5 Z"/></g>
<g><path style="opacity:0.759" fill="#fefdfe" d="M 133.5,-0.5 C 211.167,-0.5 288.833,-0.5 366.5,-0.5C 353.642,0.172287 340.642,1.00562 327.5,2C 328.833,2.33333 330.167,2.66667 331.5,3C 328.953,3.0674 326.786,3.90073 325,5.5C 324.667,4.83333 324.333,4.16667 324,3.5C 322.902,4.96749 321.402,5.80083 319.5,6C 348.789,16.472 375.789,30.8053 400.5,49C 414.227,60.222 427.227,72.3887 439.5,85.5C 450.212,99.548 460.546,113.881 470.5,128.5C 475.573,140.713 481.239,152.213 487.5,163C 486.833,163.333 486.167,163.667 485.5,164C 486.833,165 488.167,166 489.5,167C 489.167,167.333 488.833,167.667 488.5,168C 491.544,168.359 491.878,169.026 489.5,170C 492.167,170.667 492.167,171.333 489.5,172C 491.046,173.44 491.879,175.273 492,177.5C 493.84,178.833 494.34,178.666 493.5,177C 494.264,174.931 494.764,172.764 495,170.5C 495.333,171.167 495.667,171.833 496,172.5C 496.699,167.719 497.199,167.553 497.5,172C 497.325,173.658 496.658,174.991 495.5,176C 496.167,176.333 496.833,176.667 497.5,177C 496.572,177.388 495.905,178.055 495.5,179C 496.988,181.625 497.822,184.458 498,187.5C 498.168,169.329 498.668,151.329 499.5,133.5C 499.5,195.5 499.5,257.5 499.5,319.5C 498.672,313.347 498.172,307.013 498,300.5C 497.808,302.577 497.308,304.577 496.5,306.5C 493.174,306.631 491.008,308.631 490,312.5C 479.234,352.376 459.901,387.376 432,417.5C 416.1,434.746 398.433,449.746 379,462.5C 365.109,468.927 351.276,475.76 337.5,483C 326.821,485.792 316.321,488.958 306,492.5C 304.333,492.167 302.667,491.833 301,491.5C 296,492.833 291,494.167 286,495.5C 285.667,494.833 285.333,494.167 285,493.5C 280.692,496.166 276.192,498.166 271.5,499.5C 256.833,499.5 242.167,499.5 227.5,499.5C 227.918,498.778 228.584,498.278 229.5,498C 223.5,497.667 217.5,497.333 211.5,497C 207.616,496.14 203.449,495.307 199,494.5C 196.888,495.223 194.888,496.223 193,497.5C 192.055,497.095 191.388,496.428 191,495.5C 190.5,496.667 189.667,497.5 188.5,498C 189.416,498.278 190.082,498.778 190.5,499.5C 176.833,499.5 163.167,499.5 149.5,499.5C 150.952,498.698 152.618,498.198 154.5,498C 153.833,497.667 153.167,497.333 152.5,497C 157.418,496.805 162.251,496.305 167,495.5C 168,495.833 169,496.167 170,496.5C 170.667,493.833 171.333,493.833 172,496.5C 173.167,494.667 174.667,493.167 176.5,492C 174.667,490.833 173.167,489.333 172,487.5C 171.667,487.833 171.333,488.167 171,488.5C 165.335,485.919 159.502,483.753 153.5,482C 140.83,474.661 128.163,467.328 115.5,460C 104.547,452.048 93.8802,443.715 83.5,435C 64.7505,416.095 48.0838,395.595 33.5,373.5C 29.6763,365.193 24.8429,357.526 19,350.5C 16.0841,340.466 12.4175,330.799 8,321.5C 7.66667,322.167 7.33333,322.833 7,323.5C 5.6839,322.026 4.6839,320.359 4,318.5C 3.02007,320.059 2.18673,321.726 1.5,323.5C 0.828112,322.051 0.161445,320.718 -0.5,319.5C -0.5,263.833 -0.5,208.167 -0.5,152.5C 0.482403,150.594 1.4824,148.594 2.5,146.5C 3.42869,147.689 3.76202,149.022 3.5,150.5C 4.82207,150.67 5.98873,150.337 7,149.5C 7.44966,151.519 8.283,153.352 9.5,155C 9.03062,156.962 9.69729,158.795 11.5,160.5C 12.8066,159.184 14.3066,158.184 16,157.5C 19.0767,150.348 22.41,143.348 26,136.5C 33.8272,126.181 41.1605,115.514 48,104.5C 64.4352,85.729 81.6018,67.5623 99.5,50C 106.638,45.3618 113.638,40.5284 120.5,35.5C 132.863,29.6968 144.363,22.6968 155,14.5C 155.333,14.8333 155.667,15.1667 156,15.5C 159.898,13.0443 163.898,11.7109 168,11.5C 169.301,9.59791 169.968,7.59791 170,5.5C 169.667,6.16667 169.333,6.83333 169,7.5C 163.333,6.16667 157.667,4.83333 152,3.5C 151.667,4.16667 151.333,4.83333 151,5.5C 146.19,2.61139 140.357,0.611387 133.5,-0.5 Z M 183.5,492.5 C 186.413,493.241 189.413,493.741 192.5,494C 191,494.167 189.5,494.333 188,494.5C 186.014,494.431 184.514,493.765 183.5,492.5 Z"/></g>
<g><path style="opacity:0.004" fill="#fefffe" d="M 332.5,2.5 C 333.833,3.16667 333.833,3.16667 332.5,2.5 Z"/></g>
<g><path style="opacity:0.996" fill="#d99eb9" d="M 229.5,32.5 C 235.825,31.8337 242.325,31.5004 249,31.5C 258.057,31.2842 266.89,31.9509 275.5,33.5C 272.833,33.5 270.167,33.5 267.5,33.5C 266.167,33.5 264.833,33.5 263.5,33.5C 252.346,32.5052 241.012,32.1719 229.5,32.5 Z"/></g>
<g><path style="opacity:0.996" fill="#d296af" d="M 229.5,32.5 C 225.1,34.1042 220.434,34.7709 215.5,34.5C 219.919,33.0285 224.586,32.3618 229.5,32.5 Z"/></g>
<g><path style="opacity:0.996" fill="#be6b8f" d="M 267.5,33.5 C 270.167,33.5 272.833,33.5 275.5,33.5C 281.394,33.9386 287.06,34.9386 292.5,36.5C 283.967,36.0161 275.634,35.0161 267.5,33.5 Z"/></g>
<g><path style="opacity:0.996" fill="#d05f91" d="M 263.5,33.5 C 264.833,33.5 266.167,33.5 267.5,33.5C 275.634,35.0161 283.967,36.0161 292.5,36.5C 293.5,36.5 294.5,36.5 295.5,36.5C 295.953,37.4584 296.619,38.2917 297.5,39C 301.679,38.9358 305.345,40.1024 308.5,42.5C 282.455,36.9262 256.122,35.0929 229.5,37C 223.902,37.0673 218.569,37.9006 213.5,39.5C 209.154,39.3343 204.821,39.501 200.5,40C 193.995,43.437 186.995,45.1037 179.5,45C 171.698,49.8997 163.365,53.733 154.5,56.5C 157.442,53.3895 161.108,51.3895 165.5,50.5C 166.298,50.0431 166.631,49.3764 166.5,48.5C 170.948,45.4643 175.948,43.7976 181.5,43.5C 185.767,42.7444 189.767,41.411 193.5,39.5C 195.042,38.6993 196.708,38.366 198.5,38.5C 209.288,38.1161 219.955,36.7828 230.5,34.5C 241.48,33.5012 252.48,33.1679 263.5,33.5 Z"/></g>
<g><path style="opacity:0.996" fill="#be638b" d="M 229.5,32.5 C 241.012,32.1719 252.346,32.5052 263.5,33.5C 252.48,33.1679 241.48,33.5012 230.5,34.5C 219.955,36.7828 209.288,38.1161 198.5,38.5C 203.827,36.2158 209.493,34.8825 215.5,34.5C 220.434,34.7709 225.1,34.1042 229.5,32.5 Z"/></g>
<g><path style="opacity:0.996" fill="#ed6ca5" d="M 160.5,103.5 C 163.833,103.5 167.167,103.5 170.5,103.5C 167.477,95.1313 163.144,87.4646 157.5,80.5C 156.635,79.4173 155.635,79.2506 154.5,80C 153.973,83.005 152.64,85.505 150.5,87.5C 149.242,85.3131 148.242,82.9798 147.5,80.5C 152.515,72.4608 157.515,64.4608 162.5,56.5C 162.167,56.1667 161.833,55.8333 161.5,55.5C 155.179,58.1437 148.846,60.8104 142.5,63.5C 141.833,63.5 141.167,63.5 140.5,63.5C 142.885,61.4404 145.218,59.4404 147.5,57.5C 149.764,56.7814 152.097,56.448 154.5,56.5C 163.365,53.733 171.698,49.8997 179.5,45C 186.995,45.1037 193.995,43.437 200.5,40C 204.821,39.501 209.154,39.3343 213.5,39.5C 216.588,38.9315 219.588,38.9315 222.5,39.5C 206.134,66.4041 190.301,93.7374 175,121.5C 174.035,123.26 172.868,123.594 171.5,122.5C 167.273,116.477 163.606,110.144 160.5,103.5 Z"/></g>
<g><path style="opacity:0.996" fill="#bf6a8d" d="M 295.5,36.5 C 303.792,38.2351 311.792,40.5684 319.5,43.5C 316.193,42.9492 312.86,42.6159 309.5,42.5C 309.167,42.5 308.833,42.5 308.5,42.5C 305.345,40.1024 301.679,38.9358 297.5,39C 296.619,38.2917 295.953,37.4584 295.5,36.5 Z"/></g>
<g><path style="opacity:0.996" fill="#c47697" d="M 193.5,39.5 C 189.767,41.411 185.767,42.7444 181.5,43.5C 185.085,41.1939 189.085,39.8606 193.5,39.5 Z"/></g>
<g><path style="opacity:0.996" fill="#e6659e" d="M 308.5,42.5 C 308.833,42.5 309.167,42.5 309.5,42.5C 313.044,43.7895 316.377,45.4561 319.5,47.5C 315.518,46.5077 311.518,45.5077 307.5,44.5C 306.446,44.6799 305.446,45.0133 304.5,45.5C 299.645,42.4975 294.478,41.8309 289,43.5C 288.06,40.5583 286.06,39.2249 283,39.5C 278.037,41.471 273.037,41.8043 268,40.5C 270.336,46.0647 272.836,51.7314 275.5,57.5C 273.049,60.4003 271.715,63.7337 271.5,67.5C 274.85,67.335 278.183,67.5017 281.5,68C 282,68.5 282.5,69 283,69.5C 287.931,77.0327 292.598,84.6994 297,92.5C 298.462,95.4355 299.629,98.4355 300.5,101.5C 295.391,111.568 289.557,121.235 283,130.5C 282.392,132.154 281.892,133.821 281.5,135.5C 247.537,136.153 213.537,136.82 179.5,137.5C 183.587,141.673 186.087,146.673 187,152.5C 193.532,159.568 198.532,167.568 202,176.5C 203,177.167 204,177.833 205,178.5C 206.326,183.16 208.659,187.16 212,190.5C 218.004,202.502 224.004,214.502 230,226.5C 230.894,228.767 232.394,230.434 234.5,231.5C 234.333,243.838 234.5,256.171 235,268.5C 235.278,269.416 235.778,270.082 236.5,270.5C 236.833,270.5 237.167,270.5 237.5,270.5C 240.428,271.82 243.761,272.486 247.5,272.5C 251.239,272.486 254.572,271.82 257.5,270.5C 258.404,269.791 258.737,268.791 258.5,267.5C 259.887,252.356 260.553,237.022 260.5,221.5C 260.5,212.993 260.166,204.66 259.5,196.5C 259.672,195.508 259.338,194.842 258.5,194.5C 266.147,181.883 273.813,169.216 281.5,156.5C 293.327,155.176 304.993,155.176 316.5,156.5C 313.436,162.572 310.102,168.405 306.5,174C 317.161,174.5 327.828,174.667 338.5,174.5C 337.908,177.691 336.741,180.691 335,183.5C 327.169,197.162 319.335,210.829 311.5,224.5C 311.5,225.167 311.5,225.833 311.5,226.5C 311.167,226.5 310.833,226.5 310.5,226.5C 308.194,226.993 305.861,227.326 303.5,227.5C 303.5,228.5 303.5,229.5 303.5,230.5C 302.248,229.032 300.248,228.032 297.5,227.5C 291.72,225.299 285.72,224.966 279.5,226.5C 278.675,230.647 278.175,234.981 278,239.5C 277.667,271.167 277.333,302.833 277,334.5C 276.727,336.101 276.227,337.601 275.5,339C 276.901,339.41 278.234,339.91 279.5,340.5C 284.735,342.45 290.402,343.117 296.5,342.5C 297.496,342.414 298.329,342.748 299,343.5C 300.333,346.167 301.667,348.833 303,351.5C 303.667,353.167 303.667,354.833 303,356.5C 297.144,365.986 291.811,375.653 287,385.5C 298,386.833 309,386.833 320,385.5C 322.468,386.104 324.468,387.438 326,389.5C 327.054,392.314 328.554,394.647 330.5,396.5C 324.362,406.094 318.696,416.094 313.5,426.5C 334.593,428.072 355.593,427.739 376.5,425.5C 375.139,427.527 373.473,429.194 371.5,430.5C 364.81,434.205 358.144,437.871 351.5,441.5C 348.279,442.505 344.946,443.339 341.5,444C 335.76,447.279 330.093,450.446 324.5,453.5C 321.454,455.292 318.121,456.292 314.5,456.5C 314.167,456.5 313.833,456.5 313.5,456.5C 312.235,455.521 310.901,454.521 309.5,453.5C 281.601,403.332 254.267,355.999 227.5,311.5C 225.001,306.337 222.334,301.17 219.5,296C 219.439,294.289 220.106,292.956 221.5,292C 220.737,291.056 219.737,290.556 218.5,290.5C 215.908,291.241 213.242,292.575 210.5,294.5C 213.057,290.055 215.057,285.389 216.5,280.5C 219.938,271.929 220.271,263.262 217.5,254.5C 216.581,248.679 214.581,243.346 211.5,238.5C 211.405,235.728 210.071,233.728 207.5,232.5C 206.573,230.887 205.739,229.221 205,227.5C 201.617,228.908 198.783,228.075 196.5,225C 183.591,222.015 171.257,223.349 159.5,229C 158.177,229.816 157.511,230.983 157.5,232.5C 154.757,234.239 152.757,236.573 151.5,239.5C 150.115,240.574 148.949,241.907 148,243.5C 147.058,246.374 145.891,249.04 144.5,251.5C 143.732,252.263 143.232,253.263 143,254.5C 142.333,262.167 142.333,269.833 143,277.5C 143.383,278.056 143.883,278.389 144.5,278.5C 145.11,279.391 145.443,280.391 145.5,281.5C 145.166,284.491 146.166,286.824 148.5,288.5C 150.58,291.642 152.914,294.642 155.5,297.5C 151.292,297.13 148.792,294.796 148,290.5C 129.602,321.62 111.435,352.953 93.5,384.5C 92.147,385.685 90.9803,387.019 90,388.5C 88.0171,387.018 86.1837,385.351 84.5,383.5C 83.6143,384.325 83.281,385.325 83.5,386.5C 80.8418,383.197 78.1751,379.864 75.5,376.5C 74.4231,375.295 73.0898,374.628 71.5,374.5C 69.9138,372.33 68.5804,369.996 67.5,367.5C 65.6243,362.746 63.4577,358.079 61,353.5C 60.3292,352.748 59.4959,352.414 58.5,352.5C 58.5,352.167 58.5,351.833 58.5,351.5C 58.8399,348.856 58.1733,346.523 56.5,344.5C 57.1667,344.167 57.8333,343.833 58.5,343.5C 72.0063,343.561 85.673,343.561 99.5,343.5C 96.7644,339.673 94.7644,335.34 93.5,330.5C 86.9184,319.402 80.0851,308.402 73,297.5C 71.9914,295.975 71.4914,294.308 71.5,292.5C 70.5,292.5 69.5,292.5 68.5,292.5C 63.8392,302.81 58.3392,312.81 52,322.5C 51.1529,324.854 50.3195,327.188 49.5,329.5C 48.0018,325.635 46.3351,321.969 44.5,318.5C 43.5,316.5 42.5,314.5 41.5,312.5C 41.3259,310.139 40.9926,307.806 40.5,305.5C 36.085,283.195 34.085,260.528 34.5,237.5C 46.8378,237.667 59.1712,237.5 71.5,237C 67.7133,230.378 63.7133,223.878 59.5,217.5C 59.5,216.5 59.5,215.5 59.5,214.5C 65.8333,214.5 72.1667,214.5 78.5,214.5C 77.9865,210.475 76.1532,207.142 73,204.5C 72.187,202.564 71.687,200.564 71.5,198.5C 88.8461,198.833 106.179,198.5 123.5,197.5C 109.831,172.328 95.8306,147.328 81.5,122.5C 80.675,121.614 79.675,121.281 78.5,121.5C 78.9887,120.005 79.6554,118.671 80.5,117.5C 82.371,117.141 83.871,116.141 85,114.5C 90.1873,106.99 96.0206,100.157 102.5,94C 108.491,90.7464 113.158,86.2464 116.5,80.5C 118.12,78.5868 120.12,77.2534 122.5,76.5C 122.5,75.5 122.5,74.5 122.5,73.5C 126.03,71.4888 129.697,69.6554 133.5,68C 134.823,67.1841 135.489,66.0174 135.5,64.5C 135.842,63.6618 136.508,63.3284 137.5,63.5C 138.5,63.5 139.5,63.5 140.5,63.5C 141.167,63.5 141.833,63.5 142.5,63.5C 141.071,64.2342 140.071,65.4009 139.5,67C 141.805,71.7854 144.471,76.2854 147.5,80.5C 148.242,82.9798 149.242,85.3131 150.5,87.5C 147.304,92.5578 144.638,97.8912 142.5,103.5C 148.5,103.5 154.5,103.5 160.5,103.5C 163.606,110.144 167.273,116.477 171.5,122.5C 172.868,123.594 174.035,123.26 175,121.5C 190.301,93.7374 206.134,66.4041 222.5,39.5C 219.588,38.9315 216.588,38.9315 213.5,39.5C 218.569,37.9006 223.902,37.0673 229.5,37C 256.122,35.0929 282.455,36.9262 308.5,42.5 Z"/></g>
<g><path style="opacity:0.996" fill="#bf6d90" d="M 319.5,43.5 C 324.579,44.8695 329.579,46.5362 334.5,48.5C 336.964,49.5665 339.297,50.8998 341.5,52.5C 334.431,50.6076 327.431,48.441 320.5,46C 319.748,45.3292 319.414,44.4959 319.5,43.5 Z"/></g>
<g><path style="opacity:0.996" fill="#f7d8e9" d="M 334.5,48.5 C 335.873,48.3433 337.207,48.51 338.5,49C 343.08,51.2321 347.414,53.7321 351.5,56.5C 347.937,55.7176 344.603,54.3843 341.5,52.5C 339.297,50.8998 336.964,49.5665 334.5,48.5 Z"/></g>
<g><path style="opacity:0.996" fill="#cf7ea1" d="M 166.5,48.5 C 166.631,49.3764 166.298,50.0431 165.5,50.5C 161.108,51.3895 157.442,53.3895 154.5,56.5C 152.097,56.448 149.764,56.7814 147.5,57.5C 153.569,54.1379 159.902,51.1379 166.5,48.5 Z"/></g>
<g><path style="opacity:0.996" fill="#cb628f" d="M 309.5,42.5 C 312.86,42.6159 316.193,42.9492 319.5,43.5C 319.414,44.4959 319.748,45.3292 320.5,46C 327.431,48.441 334.431,50.6076 341.5,52.5C 344.603,54.3843 347.937,55.7176 351.5,56.5C 352.833,57.5 354.167,58.5 355.5,59.5C 348.264,57.9037 341.264,55.5703 334.5,52.5C 329.771,50.3086 324.771,48.6419 319.5,47.5C 316.377,45.4561 313.044,43.7895 309.5,42.5 Z"/></g>
<g><path style="opacity:0.996" fill="#fd7cb5" d="M 248.5,53.5 C 249.675,53.281 250.675,53.6143 251.5,54.5C 260.089,71.3539 269.422,87.6872 279.5,103.5C 259.833,104.833 240.167,104.833 220.5,103.5C 230.756,87.2703 240.09,70.6036 248.5,53.5 Z"/></g>
<g><path style="opacity:0.996" fill="#ec6ba5" d="M 319.5,47.5 C 324.771,48.6419 329.771,50.3086 334.5,52.5C 335.456,53.6594 336.456,54.8261 337.5,56C 331.18,69.1046 324.013,82.2713 316,95.5C 315.51,97.5454 315.677,99.5454 316.5,101.5C 315.542,101.047 314.708,100.381 314,99.5C 313.197,95.2173 311.363,91.5506 308.5,88.5C 305.085,92.4683 302.419,96.8016 300.5,101.5C 299.629,98.4355 298.462,95.4355 297,92.5C 292.598,84.6994 287.931,77.0327 283,69.5C 282.5,69 282,68.5 281.5,68C 278.183,67.5017 274.85,67.335 271.5,67.5C 271.715,63.7337 273.049,60.4003 275.5,57.5C 272.836,51.7314 270.336,46.0647 268,40.5C 273.037,41.8043 278.037,41.471 283,39.5C 286.06,39.2249 288.06,40.5583 289,43.5C 294.478,41.8309 299.645,42.4975 304.5,45.5C 305.446,45.0133 306.446,44.6799 307.5,44.5C 311.518,45.5077 315.518,46.5077 319.5,47.5 Z"/></g>
<g><path style="opacity:0.996" fill="#fa7ab2" d="M 147.5,80.5 C 144.471,76.2854 141.805,71.7854 139.5,67C 140.071,65.4009 141.071,64.2342 142.5,63.5C 148.846,60.8104 155.179,58.1437 161.5,55.5C 161.833,55.8333 162.167,56.1667 162.5,56.5C 157.515,64.4608 152.515,72.4608 147.5,80.5 Z"/></g>
<g><path style="opacity:0.996" fill="#e867a0" d="M 334.5,52.5 C 341.264,55.5703 348.264,57.9037 355.5,59.5C 355.782,60.7777 356.449,61.7777 357.5,62.5C 354.423,62.6529 351.589,61.9863 349,60.5C 345.299,62.8895 342.799,66.2229 341.5,70.5C 347.842,70.6662 354.175,70.4995 360.5,70C 361.252,69.3292 361.586,68.4959 361.5,67.5C 366.073,69.5181 370.739,71.3514 375.5,73C 376.758,74.7409 377.758,76.5742 378.5,78.5C 375.63,77.9219 373.963,76.2552 373.5,73.5C 369.965,71.547 367.132,72.2137 365,75.5C 354.87,92.7699 345.037,110.103 335.5,127.5C 334.542,127.953 333.708,128.619 333,129.5C 327.749,119.996 322.249,110.662 316.5,101.5C 315.677,99.5454 315.51,97.5454 316,95.5C 324.013,82.2713 331.18,69.1046 337.5,56C 336.456,54.8261 335.456,53.6594 334.5,52.5 Z"/></g>
<g><path style="opacity:0.996" fill="#ce86a5" d="M 147.5,57.5 C 145.218,59.4404 142.885,61.4404 140.5,63.5C 139.5,63.5 138.5,63.5 137.5,63.5C 140.494,61.0002 143.827,59.0002 147.5,57.5 Z"/></g>
<g><path style="opacity:0.996" fill="#fa7ab3" d="M 357.5,62.5 C 358.08,64.7488 359.413,66.4154 361.5,67.5C 361.586,68.4959 361.252,69.3292 360.5,70C 354.175,70.4995 347.842,70.6662 341.5,70.5C 342.799,66.2229 345.299,62.8895 349,60.5C 351.589,61.9863 354.423,62.6529 357.5,62.5 Z"/></g>
<g><path style="opacity:0.996" fill="#c27696" d="M 135.5,64.5 C 135.489,66.0174 134.823,67.1841 133.5,68C 129.697,69.6554 126.03,71.4888 122.5,73.5C 126.001,69.3375 130.335,66.3375 135.5,64.5 Z"/></g>
<g><path style="opacity:0.996" fill="#fb7ab3" d="M 378.5,78.5 C 382.302,82.576 386.969,85.4094 392.5,87C 394.229,88.7889 394.896,90.9556 394.5,93.5C 398.993,95.9127 403.326,98.5793 407.5,101.5C 412.5,109.162 418.5,115.828 425.5,121.5C 425.205,123.735 425.539,125.735 426.5,127.5C 426.421,128.93 426.754,130.264 427.5,131.5C 396.167,132.833 364.833,132.833 333.5,131.5C 334.63,130.378 335.297,129.044 335.5,127.5C 345.037,110.103 354.87,92.7699 365,75.5C 367.132,72.2137 369.965,71.547 373.5,73.5C 373.963,76.2552 375.63,77.9219 378.5,78.5 Z"/></g>
<g><path style="opacity:0.996" fill="#fae1ef" d="M 378.5,73.5 C 382.615,73.6195 385.281,75.6195 386.5,79.5C 383.545,77.8777 380.878,75.8777 378.5,73.5 Z"/></g>
<g><path style="opacity:0.996" fill="#f978b1" d="M 160.5,103.5 C 154.5,103.5 148.5,103.5 142.5,103.5C 144.638,97.8912 147.304,92.5578 150.5,87.5C 152.64,85.505 153.973,83.005 154.5,80C 155.635,79.2506 156.635,79.4173 157.5,80.5C 163.144,87.4646 167.477,95.1313 170.5,103.5C 167.167,103.5 163.833,103.5 160.5,103.5 Z"/></g>
<g><path style="opacity:0.996" fill="#c36b90" d="M 122.5,73.5 C 122.5,74.5 122.5,75.5 122.5,76.5C 120.12,77.2534 118.12,78.5868 116.5,80.5C 113.516,83.9816 109.849,86.4816 105.5,88C 103.205,92.1341 99.8715,94.9674 95.5,96.5C 100.663,90.5039 106.33,85.0039 112.5,80C 115.72,77.5633 119.053,75.3967 122.5,73.5 Z"/></g>
<g><path style="opacity:0.996" fill="#d66095" d="M 116.5,80.5 C 113.158,86.2464 108.491,90.7464 102.5,94C 96.0206,100.157 90.1873,106.99 85,114.5C 83.871,116.141 82.371,117.141 80.5,117.5C 84.6759,109.978 89.6759,102.978 95.5,96.5C 99.8715,94.9674 103.205,92.1341 105.5,88C 109.849,86.4816 113.516,83.9816 116.5,80.5 Z"/></g>
<g><path style="opacity:0.996" fill="#f473ac" d="M 316.5,101.5 C 322.249,110.662 327.749,119.996 333,129.5C 333.708,128.619 334.542,127.953 335.5,127.5C 335.297,129.044 334.63,130.378 333.5,131.5C 364.833,132.833 396.167,132.833 427.5,131.5C 426.754,130.264 426.421,128.93 426.5,127.5C 428.822,128.802 430.155,130.802 430.5,133.5C 416.5,133.5 402.5,133.5 388.5,133.5C 370.821,133.167 353.154,133.5 335.5,134.5C 338.667,139.5 341.833,144.5 345,149.5C 346.009,151.025 346.509,152.692 346.5,154.5C 341.125,154.172 335.792,154.505 330.5,155.5C 333.77,160.38 336.77,165.38 339.5,170.5C 339.937,172.074 340.937,173.241 342.5,174C 341.207,174.49 339.873,174.657 338.5,174.5C 327.828,174.667 317.161,174.5 306.5,174C 310.102,168.405 313.436,162.572 316.5,156.5C 317.043,156.44 317.376,156.107 317.5,155.5C 301.936,154.177 286.436,154.177 271,155.5C 270.365,153.365 270.699,151.365 272,149.5C 274.942,144.594 278.109,139.928 281.5,135.5C 281.892,133.821 282.392,132.154 283,130.5C 289.557,121.235 295.391,111.568 300.5,101.5C 302.419,96.8016 305.085,92.4683 308.5,88.5C 311.363,91.5506 313.197,95.2173 314,99.5C 314.708,100.381 315.542,101.047 316.5,101.5 Z"/></g>
<g><path style="opacity:0.996" fill="#d4749d" d="M 355.5,59.5 C 363.333,63.9155 371,68.5822 378.5,73.5C 380.878,75.8777 383.545,77.8777 386.5,79.5C 398.102,89.268 408.936,99.9347 419,111.5C 421.437,114.72 423.603,118.053 425.5,121.5C 418.5,115.828 412.5,109.162 407.5,101.5C 403.326,98.5793 398.993,95.9127 394.5,93.5C 394.896,90.9556 394.229,88.7889 392.5,87C 386.969,85.4094 382.302,82.576 378.5,78.5C 377.758,76.5742 376.758,74.7409 375.5,73C 370.739,71.3514 366.073,69.5181 361.5,67.5C 359.413,66.4154 358.08,64.7488 357.5,62.5C 356.449,61.7777 355.782,60.7777 355.5,59.5 Z"/></g>
<g><path style="opacity:0.996" fill="#d0719b" d="M 95.5,96.5 C 89.6759,102.978 84.6759,109.978 80.5,117.5C 79.6554,118.671 78.9887,120.005 78.5,121.5C 76.6481,124.698 73.9814,126.698 70.5,127.5C 69.3854,131.947 67.0521,135.613 63.5,138.5C 63.8923,136.821 64.3923,135.154 65,133.5C 73.7525,119.991 83.9192,107.658 95.5,96.5 Z"/></g>
<g><path style="opacity:0.996" fill="#f06fa8" d="M 78.5,121.5 C 79.675,121.281 80.675,121.614 81.5,122.5C 95.8306,147.328 109.831,172.328 123.5,197.5C 106.179,198.5 88.8461,198.833 71.5,198.5C 71.687,200.564 72.187,202.564 73,204.5C 76.1532,207.142 77.9865,210.475 78.5,214.5C 72.1667,214.5 65.8333,214.5 59.5,214.5C 59.5,215.5 59.5,216.5 59.5,217.5C 58.7326,216.828 58.0659,215.995 57.5,215C 55.1902,214.503 52.8568,214.337 50.5,214.5C 52.0746,211.042 52.5746,207.376 52,203.5C 48.8723,198.561 46.039,193.561 43.5,188.5C 45.61,187.547 46.7767,185.881 47,183.5C 47.6774,177.131 48.5107,170.798 49.5,164.5C 53.3231,161.178 55.3231,156.845 55.5,151.5C 59.6299,148.171 62.2965,143.837 63.5,138.5C 67.0521,135.613 69.3854,131.947 70.5,127.5C 73.9814,126.698 76.6481,124.698 78.5,121.5 Z"/></g>
<g><path style="opacity:0.004" fill="#fefffe" d="M 499.5,129.5 C 499.5,129.833 499.5,130.167 499.5,130.5C 498.83,130.019 498.83,129.685 499.5,129.5 Z"/></g>
<g><path style="opacity:0.004" fill="#fefffe" d="M 499.5,131.5 C 499.5,131.833 499.5,132.167 499.5,132.5C 498.83,132.019 498.83,131.685 499.5,131.5 Z"/></g>
<g><path style="opacity:0.996" fill="#e767a0" d="M 388.5,133.5 C 404.364,163.229 421.364,192.395 439.5,221C 447.521,221.832 455.521,221.665 463.5,220.5C 462.902,219.205 462.402,217.872 462,216.5C 460.951,217.517 459.784,217.684 458.5,217C 458.103,211.901 458.103,206.734 458.5,201.5C 456.799,202.802 455.632,204.469 455,206.5C 454.03,204.041 452.863,201.708 451.5,199.5C 451.824,197.431 452.658,197.098 454,198.5C 454.833,196.833 455.667,195.167 456.5,193.5C 454.043,190.036 453.376,186.369 454.5,182.5C 455.325,184.81 456.658,186.81 458.5,188.5C 459.11,189.391 459.443,190.391 459.5,191.5C 459.617,200.616 461.284,209.282 464.5,217.5C 464.5,219.167 464.5,220.833 464.5,222.5C 456.16,222.334 447.827,222.5 439.5,223C 443.855,231.2 448.855,239.033 454.5,246.5C 454.975,250.789 456.975,254.122 460.5,256.5C 462.319,259.648 463.652,262.981 464.5,266.5C 464.5,270.5 464.5,274.5 464.5,278.5C 464.5,280.167 464.5,281.833 464.5,283.5C 463.326,284.514 462.66,285.847 462.5,287.5C 456.975,297.713 450.975,307.713 444.5,317.5C 442.983,317.489 441.816,316.823 441,315.5C 436.626,306.608 431.959,297.941 427,289.5C 425.989,288.663 424.822,288.33 423.5,288.5C 422.951,290.901 422.118,293.235 421,295.5C 414.625,304.931 408.792,314.597 403.5,324.5C 401.011,316.523 397.177,309.19 392,302.5C 389.612,294.183 385.445,286.85 379.5,280.5C 374.451,271.138 369.451,261.805 364.5,252.5C 363.5,251.167 362.5,251.167 361.5,252.5C 359.309,257.104 356.976,261.437 354.5,265.5C 355.08,261.351 354.414,257.684 352.5,254.5C 352.5,254.167 352.5,253.833 352.5,253.5C 351.966,247.491 350.299,241.825 347.5,236.5C 353.453,237.124 359.453,237.458 365.5,237.5C 371.334,237.647 377.001,237.147 382.5,236C 380.676,233.133 378.51,230.633 376,228.5C 366.053,209.718 355.887,191.052 345.5,172.5C 344.758,171.713 343.925,171.047 343,170.5C 341.855,171.684 340.688,171.684 339.5,170.5C 336.77,165.38 333.77,160.38 330.5,155.5C 335.792,154.505 341.125,154.172 346.5,154.5C 346.509,152.692 346.009,151.025 345,149.5C 341.833,144.5 338.667,139.5 335.5,134.5C 353.154,133.5 370.821,133.167 388.5,133.5 Z"/></g>
<g><path style="opacity:0.996" fill="#ed6ca5" d="M 388.5,133.5 C 402.5,133.5 416.5,133.5 430.5,133.5C 434.199,138.792 438.033,144.125 442,149.5C 443.128,151.345 443.628,153.345 443.5,155.5C 441.866,154.028 440.366,152.362 439,150.5C 433.895,157.959 429.062,165.625 424.5,173.5C 433.482,174.665 442.482,174.832 451.5,174C 450.62,172.644 450.286,171.144 450.5,169.5C 452.157,173.626 453.491,177.96 454.5,182.5C 453.376,186.369 454.043,190.036 456.5,193.5C 455.667,195.167 454.833,196.833 454,198.5C 452.658,197.098 451.824,197.431 451.5,199.5C 452.863,201.708 454.03,204.041 455,206.5C 455.632,204.469 456.799,202.802 458.5,201.5C 458.103,206.734 458.103,211.901 458.5,217C 459.784,217.684 460.951,217.517 462,216.5C 462.402,217.872 462.902,219.205 463.5,220.5C 455.521,221.665 447.521,221.832 439.5,221C 421.364,192.395 404.364,163.229 388.5,133.5 Z"/></g>
<g><path style="opacity:0.996" fill="#d5719c" d="M 425.5,121.5 C 427.099,123.604 428.932,125.604 431,127.5C 435.807,135.46 440.307,143.46 444.5,151.5C 444.755,153.967 445.755,155.967 447.5,157.5C 447.5,158.167 447.5,158.833 447.5,159.5C 445.806,158.473 444.473,157.139 443.5,155.5C 443.628,153.345 443.128,151.345 442,149.5C 438.033,144.125 434.199,138.792 430.5,133.5C 430.155,130.802 428.822,128.802 426.5,127.5C 425.539,125.735 425.205,123.735 425.5,121.5 Z"/></g>
<g><path style="opacity:0.996" fill="#ee6ca5" d="M 281.5,135.5 C 278.109,139.928 274.942,144.594 272,149.5C 270.699,151.365 270.365,153.365 271,155.5C 286.436,154.177 301.936,154.177 317.5,155.5C 317.376,156.107 317.043,156.44 316.5,156.5C 304.993,155.176 293.327,155.176 281.5,156.5C 273.813,169.216 266.147,181.883 258.5,194.5C 251.159,194.334 243.826,194.5 236.5,195C 235.944,195.383 235.611,195.883 235.5,196.5C 234.505,207.988 234.172,219.655 234.5,231.5C 232.394,230.434 230.894,228.767 230,226.5C 224.004,214.502 218.004,202.502 212,190.5C 208.659,187.16 206.326,183.16 205,178.5C 204,177.833 203,177.167 202,176.5C 198.532,167.568 193.532,159.568 187,152.5C 186.087,146.673 183.587,141.673 179.5,137.5C 213.537,136.82 247.537,136.153 281.5,135.5 Z"/></g>
<g><path style="opacity:0.996" fill="#d483a5" d="M 63.5,138.5 C 62.2965,143.837 59.6299,148.171 55.5,151.5C 56.9166,146.321 59.5832,141.988 63.5,138.5 Z"/></g>
<g><path style="opacity:0.996" fill="#fc7bb4" d="M 443.5,155.5 C 444.473,157.139 445.806,158.473 447.5,159.5C 448.167,159.5 448.5,159.833 448.5,160.5C 448.091,163.855 448.758,166.855 450.5,169.5C 450.286,171.144 450.62,172.644 451.5,174C 442.482,174.832 433.482,174.665 424.5,173.5C 429.062,165.625 433.895,157.959 439,150.5C 440.366,152.362 441.866,154.028 443.5,155.5 Z"/></g>
<g><path style="opacity:0.996" fill="#f0b7d3" d="M 444.5,151.5 C 446.245,153.033 447.245,155.033 447.5,157.5C 445.755,155.967 444.755,153.967 444.5,151.5 Z"/></g>
<g><path style="opacity:0.996" fill="#d37da2" d="M 55.5,151.5 C 55.3231,156.845 53.3231,161.178 49.5,164.5C 51.2635,159.978 53.2635,155.645 55.5,151.5 Z"/></g>
<g><path style="opacity:0.004" fill="#fefffe" d="M 496.5,166.5 C 497.833,167.167 497.833,167.167 496.5,166.5 Z"/></g>
<g><path style="opacity:0.004" fill="#fefffe" d="M 494.5,168.5 C 495.833,169.167 495.833,169.167 494.5,168.5 Z"/></g>
<g><path style="opacity:0.996" fill="#f06fa8" d="M 339.5,170.5 C 340.688,171.684 341.855,171.684 343,170.5C 343.925,171.047 344.758,171.713 345.5,172.5C 355.887,191.052 366.053,209.718 376,228.5C 378.51,230.633 380.676,233.133 382.5,236C 377.001,237.147 371.334,237.647 365.5,237.5C 359.453,237.458 353.453,237.124 347.5,236.5C 346.308,233.952 344.642,231.618 342.5,229.5C 339.912,228.806 337.579,227.64 335.5,226C 336.624,225.751 337.624,225.251 338.5,224.5C 334.904,223.921 331.238,223.921 327.5,224.5C 322.167,224.5 316.833,224.5 311.5,224.5C 319.335,210.829 327.169,197.162 335,183.5C 336.741,180.691 337.908,177.691 338.5,174.5C 339.873,174.657 341.207,174.49 342.5,174C 340.937,173.241 339.937,172.074 339.5,170.5 Z"/></g>
<g><path style="opacity:0.795" fill="#f0f0f0" d="M 482.5,326.5 C 484.423,315.054 486.923,303.72 490,292.5C 490.808,288.973 490.641,285.64 489.5,282.5C 496.358,227.961 486.358,176.794 459.5,129C 460.102,127.437 460.935,127.604 462,129.5C 496.56,192.521 503.393,258.188 482.5,326.5 Z"/></g>
<g><path style="opacity:0.988" fill="#f6d0e3" d="M 454.5,174.5 C 457.658,179.633 459.658,185.3 460.5,191.5C 460.167,191.5 459.833,191.5 459.5,191.5C 459.443,190.391 459.11,189.391 458.5,188.5C 457.167,183.833 455.833,179.167 454.5,174.5 Z"/></g>
<g><path style="opacity:0.996" fill="#d3749c" d="M 448.5,160.5 C 451.012,164.866 453.012,169.533 454.5,174.5C 455.833,179.167 457.167,183.833 458.5,188.5C 456.658,186.81 455.325,184.81 454.5,182.5C 453.491,177.96 452.157,173.626 450.5,169.5C 448.758,166.855 448.091,163.855 448.5,160.5 Z"/></g>
<g><path style="opacity:0.004" fill="#fefffe" d="M 496.5,178.5 C 497.833,179.167 497.833,179.167 496.5,178.5 Z"/></g>
<g><path style="opacity:0.996" fill="#e4a8c3" d="M 45.5,174.5 C 45.3104,177.855 44.3104,180.855 42.5,183.5C 42.5275,180.084 43.5275,177.084 45.5,174.5 Z"/></g>
<g><path style="opacity:0.996" fill="#e374a4" d="M 49.5,164.5 C 48.5107,170.798 47.6774,177.131 47,183.5C 46.7767,185.881 45.61,187.547 43.5,188.5C 43.4011,193.73 41.7344,198.397 38.5,202.5C 38.5,201.5 38.5,200.5 38.5,199.5C 39.2579,193.918 40.5912,188.584 42.5,183.5C 44.3104,180.855 45.3104,177.855 45.5,174.5C 46.3208,170.873 47.6541,167.54 49.5,164.5 Z"/></g>
<g><path style="opacity:0.723" fill="#eeeeee" d="M 8.5,260.5 C 7.67284,255.015 7.17284,249.348 7,243.5C 6.92806,256.495 7.09473,269.495 7.5,282.5C 0.129332,214.215 17.296,152.882 59,98.5C 60.6667,96.8333 62.3333,95.1667 64,93.5C 57.8926,103.322 51.226,112.989 44,122.5C 18.8237,164.897 6.9904,210.897 8.5,260.5 Z"/></g>
<g><path style="opacity:0.996" fill="#fb7ab3" d="M 43.5,188.5 C 46.039,193.561 48.8723,198.561 52,203.5C 52.5746,207.376 52.0746,211.042 50.5,214.5C 52.8568,214.337 55.1902,214.503 57.5,215C 58.0659,215.995 58.7326,216.828 59.5,217.5C 63.7133,223.878 67.7133,230.378 71.5,237C 59.1712,237.5 46.8378,237.667 34.5,237.5C 34.7897,225.717 36.123,214.05 38.5,202.5C 41.7344,198.397 43.4011,193.73 43.5,188.5 Z"/></g>
<g><path style="opacity:0.996" fill="#de89ae" d="M 258.5,194.5 C 259.338,194.842 259.672,195.508 259.5,196.5C 259.828,207.014 259.494,217.347 258.5,227.5C 258.5,217.167 258.5,206.833 258.5,196.5C 251.358,195.262 244.358,195.262 237.5,196.5C 237.167,196.5 236.833,196.5 236.5,196.5C 236.167,196.5 235.833,196.5 235.5,196.5C 235.611,195.883 235.944,195.383 236.5,195C 243.826,194.5 251.159,194.334 258.5,194.5 Z"/></g>
<g><path style="opacity:0.996" fill="#fefefe" d="M 236.5,196.5 C 236.833,196.5 237.167,196.5 237.5,196.5C 243.561,196.21 249.561,196.543 255.5,197.5C 256.192,198.025 256.692,198.692 257,199.5C 257.133,222.167 256.8,244.834 256,267.5C 255,268.167 254,268.833 253,269.5C 248.368,269.551 243.535,269.384 238.5,269C 238.833,268.667 239.167,268.333 239.5,268C 238.851,261.734 238.185,255.567 237.5,249.5C 236.619,231.85 236.286,214.183 236.5,196.5 Z"/></g>
<g><path style="opacity:0.996" fill="#d2789e" d="M 459.5,191.5 C 459.833,191.5 460.167,191.5 460.5,191.5C 462.171,200.175 463.837,208.842 465.5,217.5C 465.167,217.5 464.833,217.5 464.5,217.5C 461.284,209.282 459.617,200.616 459.5,191.5 Z"/></g>
<g><path style="opacity:0.996" fill="#e188ae" d="M 38.5,199.5 C 38.5,200.5 38.5,201.5 38.5,202.5C 36.123,214.05 34.7897,225.717 34.5,237.5C 34.1667,237.5 33.8333,237.5 33.5,237.5C 33.5,233.5 33.5,229.5 33.5,225.5C 33.9067,216.471 35.5733,207.804 38.5,199.5 Z"/></g>
<g><path style="opacity:0.996" fill="#de5b95" d="M 464.5,222.5 C 465.756,237.318 465.756,251.984 464.5,266.5C 463.652,262.981 462.319,259.648 460.5,256.5C 456.975,254.122 454.975,250.789 454.5,246.5C 448.855,239.033 443.855,231.2 439.5,223C 447.827,222.5 456.16,222.334 464.5,222.5 Z"/></g>
<g><path style="opacity:0.996" fill="#dc79a4" d="M 211.5,238.5 C 211.167,238.5 210.833,238.5 210.5,238.5C 209.92,236.251 208.587,234.585 206.5,233.5C 203.613,230.948 200.28,229.282 196.5,228.5C 195.158,227.207 193.491,226.374 191.5,226C 184.5,225.333 177.5,225.333 170.5,226C 165.848,227.194 161.848,229.361 158.5,232.5C 158.167,232.5 157.833,232.5 157.5,232.5C 157.511,230.983 158.177,229.816 159.5,229C 171.257,223.349 183.591,222.015 196.5,225C 198.783,228.075 201.617,228.908 205,227.5C 205.739,229.221 206.573,230.887 207.5,232.5C 210.071,233.728 211.405,235.728 211.5,238.5 Z"/></g>
<g><path style="opacity:0.996" fill="#ea95b9" d="M 311.5,224.5 C 316.833,224.5 322.167,224.5 327.5,224.5C 327.5,224.833 327.5,225.167 327.5,225.5C 322.438,225.274 317.438,225.608 312.5,226.5C 312.167,226.5 311.833,226.5 311.5,226.5C 311.5,225.833 311.5,225.167 311.5,224.5 Z"/></g>
<g><path style="opacity:0.996" fill="#fefcfd" d="M 196.5,228.5 C 200.28,229.282 203.613,230.948 206.5,233.5C 207.08,235.749 208.413,237.415 210.5,238.5C 210.833,238.5 211.167,238.5 211.5,238.5C 214.581,243.346 216.581,248.679 217.5,254.5C 217.416,263.178 217.083,271.845 216.5,280.5C 215.057,285.389 213.057,290.055 210.5,294.5C 208.5,295.833 206.833,297.5 205.5,299.5C 192.204,307.089 178.204,308.422 163.5,303.5C 160.872,301.512 158.205,299.512 155.5,297.5C 152.914,294.642 150.58,291.642 148.5,288.5C 148.065,285.843 147.065,283.509 145.5,281.5C 145.443,280.391 145.11,279.391 144.5,278.5C 143.291,270.685 143.291,263.018 144.5,255.5C 147.36,250.443 149.693,245.109 151.5,239.5C 152.757,236.573 154.757,234.239 157.5,232.5C 157.833,232.5 158.167,232.5 158.5,232.5C 163.073,231.213 167.406,229.38 171.5,227C 177.833,226.333 184.167,226.333 190.5,227C 192.418,228.712 194.418,229.212 196.5,228.5 Z"/></g>
<g><path style="opacity:0.996" fill="#fefdfe" d="M 327.5,225.5 C 338.034,228.038 345.034,234.372 348.5,244.5C 350.773,256.395 351.106,268.395 349.5,280.5C 349.5,281.167 349.5,281.833 349.5,282.5C 348.094,282.973 347.427,283.973 347.5,285.5C 346.833,287.167 346.167,288.833 345.5,290.5C 339.011,299.084 330.344,304.084 319.5,305.5C 313.167,305.5 306.833,305.5 300.5,305.5C 300.5,308.167 300.5,310.833 300.5,313.5C 299.507,321.65 299.174,329.983 299.5,338.5C 293.167,339.833 286.833,339.833 280.5,338.5C 280.333,301.832 280.5,265.165 281,228.5C 285.413,227.368 289.913,227.201 294.5,228C 295.897,229.31 296.897,230.81 297.5,232.5C 297.5,232.833 297.5,233.167 297.5,233.5C 297.062,233.435 296.728,233.601 296.5,234C 299.613,239.838 302.113,239.671 304,233.5C 307.364,231.745 310.198,229.412 312.5,226.5C 317.438,225.608 322.438,225.274 327.5,225.5 Z"/></g>
<g><path style="opacity:0.996" fill="#feedfb" d="M 196.5,228.5 C 194.418,229.212 192.418,228.712 190.5,227C 184.167,226.333 177.833,226.333 171.5,227C 167.406,229.38 163.073,231.213 158.5,232.5C 161.848,229.361 165.848,227.194 170.5,226C 177.5,225.333 184.5,225.333 191.5,226C 193.491,226.374 195.158,227.207 196.5,228.5 Z"/></g>
<g><path style="opacity:0.996" fill="#feecf9" d="M 310.5,226.5 C 310.833,226.5 311.167,226.5 311.5,226.5C 311.833,226.5 312.167,226.5 312.5,226.5C 310.198,229.412 307.364,231.745 304,233.5C 302.113,239.671 299.613,239.838 296.5,234C 296.728,233.601 297.062,233.435 297.5,233.5C 298.167,234.167 298.833,234.833 299.5,235.5C 299.435,235.938 299.601,236.272 300,236.5C 302.821,232.36 306.321,229.027 310.5,226.5 Z"/></g>
<g><path style="opacity:0.996" fill="#dd73a0" d="M 310.5,226.5 C 306.321,229.027 302.821,232.36 300,236.5C 299.601,236.272 299.435,235.938 299.5,235.5C 299.59,232.848 298.924,230.515 297.5,228.5C 297.5,228.167 297.5,227.833 297.5,227.5C 300.248,228.032 302.248,229.032 303.5,230.5C 303.5,229.5 303.5,228.5 303.5,227.5C 305.861,227.326 308.194,226.993 310.5,226.5 Z"/></g>
<g><path style="opacity:0.992" fill="#e4acc5" d="M 465.5,218.5 C 466.972,222.919 467.638,227.586 467.5,232.5C 466.028,228.081 465.362,223.414 465.5,218.5 Z"/></g>
<g><path style="opacity:0.996" fill="#f7d0e6" d="M 206.5,233.5 C 208.587,234.585 209.92,236.251 210.5,238.5C 208.413,237.415 207.08,235.749 206.5,233.5 Z"/></g>
<g><path style="opacity:0.996" fill="#f4c5dc" d="M 297.5,228.5 C 298.924,230.515 299.59,232.848 299.5,235.5C 298.833,234.833 298.167,234.167 297.5,233.5C 297.5,233.167 297.5,232.833 297.5,232.5C 297.5,231.167 297.5,229.833 297.5,228.5 Z"/></g>
<g><path style="opacity:0.996" fill="#ce6a95" d="M 464.5,217.5 C 464.833,217.5 465.167,217.5 465.5,217.5C 465.5,217.833 465.5,218.167 465.5,218.5C 465.362,223.414 466.028,228.081 467.5,232.5C 467.829,245.677 467.495,258.677 466.5,271.5C 465.833,273.833 465.167,276.167 464.5,278.5C 464.5,274.5 464.5,270.5 464.5,266.5C 465.756,251.984 465.756,237.318 464.5,222.5C 464.5,220.833 464.5,219.167 464.5,217.5 Z"/></g>
<g><path style="opacity:0.996" fill="#feedfb" d="M 297.5,227.5 C 297.5,227.833 297.5,228.167 297.5,228.5C 297.5,229.833 297.5,231.167 297.5,232.5C 296.897,230.81 295.897,229.31 294.5,228C 289.913,227.201 285.413,227.368 281,228.5C 280.5,265.165 280.333,301.832 280.5,338.5C 286.833,339.833 293.167,339.833 299.5,338.5C 299.174,329.983 299.507,321.65 300.5,313.5C 300.5,322.5 300.5,331.5 300.5,340.5C 293.5,340.5 286.5,340.5 279.5,340.5C 279.5,302.5 279.5,264.5 279.5,226.5C 285.72,224.966 291.72,225.299 297.5,227.5 Z"/></g>
<g><path style="opacity:0.996" fill="#d7709c" d="M 33.5,237.5 C 33.8333,237.5 34.1667,237.5 34.5,237.5C 34.085,260.528 36.085,283.195 40.5,305.5C 38.5588,301.676 37.2254,297.676 36.5,293.5C 34.6747,282.897 33.3413,272.231 32.5,261.5C 32.1743,253.316 32.5076,245.316 33.5,237.5 Z"/></g>
<g><path style="opacity:0.996" fill="#fee8f6" d="M 193.5,247.5 C 192.833,247.167 192.167,246.833 191.5,246.5C 191.5,245.833 191.167,245.5 190.5,245.5C 189.713,243.896 188.38,243.229 186.5,243.5C 181.795,242.017 177.128,242.35 172.5,244.5C 172.574,242.589 173.574,241.422 175.5,241C 179.5,240.333 183.5,240.333 187.5,241C 190.733,242.099 192.733,244.265 193.5,247.5 Z"/></g>
<g><path style="opacity:0.996" fill="#e27eaa" d="M 279.5,226.5 C 279.5,264.5 279.5,302.5 279.5,340.5C 278.234,339.91 276.901,339.41 275.5,339C 276.227,337.601 276.727,336.101 277,334.5C 277.333,302.833 277.667,271.167 278,239.5C 278.175,234.981 278.675,230.647 279.5,226.5 Z"/></g>
<g><path style="opacity:0.996" fill="#e379a8" d="M 347.5,236.5 C 350.299,241.825 351.966,247.491 352.5,253.5C 351.447,250.392 350.114,247.392 348.5,244.5C 345.034,234.372 338.034,228.038 327.5,225.5C 327.5,225.167 327.5,224.833 327.5,224.5C 331.238,223.921 334.904,223.921 338.5,224.5C 337.624,225.251 336.624,225.751 335.5,226C 337.579,227.64 339.912,228.806 342.5,229.5C 344.642,231.618 346.308,233.952 347.5,236.5 Z"/></g>
<g><path style="opacity:0.996" fill="#e3609a" d="M 186.5,243.5 C 188.38,243.229 189.713,243.896 190.5,245.5C 190.773,247.451 190.107,248.951 188.5,250C 189.793,250.49 191.127,250.657 192.5,250.5C 194.715,260.421 195.048,270.421 193.5,280.5C 191.618,287.459 186.951,290.459 179.5,289.5C 177.435,289.483 175.435,289.15 173.5,288.5C 170.57,286.228 168.903,283.228 168.5,279.5C 167.46,269.845 167.46,260.178 168.5,250.5C 170.753,249.257 172.753,247.59 174.5,245.5C 178.426,244.368 182.426,243.701 186.5,243.5 Z"/></g>
<g><path style="opacity:0.996" fill="#f8cbe3" d="M 235.5,196.5 C 235.833,196.5 236.167,196.5 236.5,196.5C 236.286,214.183 236.619,231.85 237.5,249.5C 237.5,256.5 237.5,263.5 237.5,270.5C 237.167,270.5 236.833,270.5 236.5,270.5C 235.73,245.841 235.397,221.174 235.5,196.5 Z"/></g>
<g><path style="opacity:0.996" fill="#d6719d" d="M 186.5,243.5 C 182.426,243.701 178.426,244.368 174.5,245.5C 172.753,247.59 170.753,249.257 168.5,250.5C 168.845,247.802 170.178,245.802 172.5,244.5C 177.128,242.35 181.795,242.017 186.5,243.5 Z"/></g>
<g><path style="opacity:0.996" fill="#db709e" d="M 235.5,196.5 C 235.397,221.174 235.73,245.841 236.5,270.5C 235.778,270.082 235.278,269.416 235,268.5C 234.5,256.171 234.333,243.838 234.5,231.5C 234.172,219.655 234.505,207.988 235.5,196.5 Z"/></g>
<g><path style="opacity:0.996" fill="#f7c5db" d="M 33.5,225.5 C 33.5,229.5 33.5,233.5 33.5,237.5C 32.5076,245.316 32.1743,253.316 32.5,261.5C 31.8342,257.18 31.5009,252.68 31.5,248C 31.3893,240.282 32.0559,232.782 33.5,225.5 Z"/></g>
<g><path style="opacity:0.996" fill="#fddef0" d="M 151.5,239.5 C 149.693,245.109 147.36,250.443 144.5,255.5C 144.5,254.167 144.5,252.833 144.5,251.5C 145.891,249.04 147.058,246.374 148,243.5C 148.949,241.907 150.115,240.574 151.5,239.5 Z"/></g>
<g><path style="opacity:0.996" fill="#e298b7" d="M 191.5,246.5 C 192.167,246.833 192.833,247.167 193.5,247.5C 194.11,248.391 194.443,249.391 194.5,250.5C 194.5,251.167 194.5,251.833 194.5,252.5C 193.508,250.544 192.508,248.544 191.5,246.5 Z"/></g>
<g><path style="opacity:0.996" fill="#e6669e" d="M 326.5,277.5 C 326.167,278.833 325.833,280.167 325.5,281.5C 323.37,283.127 321.37,284.96 319.5,287C 318.552,287.483 317.552,287.649 316.5,287.5C 311.901,287.8 307.401,287.467 303,286.5C 302.333,275.833 302.333,265.167 303,254.5C 305.526,251.833 307.359,248.833 308.5,245.5C 310.547,245.489 312.547,245.156 314.5,244.5C 316.691,245.743 319.024,246.576 321.5,247C 322.517,248.049 322.684,249.216 322,250.5C 319.667,249.167 318.667,249.833 319,252.5C 321.235,253.239 323.235,253.239 325,252.5C 326.37,260.764 326.87,269.097 326.5,277.5 Z"/></g>
<g><path style="opacity:0.996" fill="#e36099" d="M 403.5,324.5 C 400.884,329.397 398.551,334.397 396.5,339.5C 408.167,339.5 419.833,339.5 431.5,339.5C 429.269,343.773 426.936,348.106 424.5,352.5C 429.12,353.493 433.786,353.827 438.5,353.5C 435.813,358.576 432.979,363.576 430,368.5C 429.282,367.549 428.449,367.383 427.5,368C 428.38,369.356 428.714,370.856 428.5,372.5C 427.559,374.05 426.893,375.716 426.5,377.5C 423.791,380.208 421.458,383.208 419.5,386.5C 419.167,386.5 418.833,386.5 418.5,386.5C 415.94,386.046 413.274,386.046 410.5,386.5C 410.5,387.5 410.5,388.5 410.5,389.5C 408.18,388.276 405.847,386.942 403.5,385.5C 391.481,385.788 379.814,386.788 368.5,388.5C 364.026,378.97 358.526,369.97 352,361.5C 343.794,372.589 336.627,384.256 330.5,396.5C 328.554,394.647 327.054,392.314 326,389.5C 324.468,387.438 322.468,386.104 320,385.5C 309,386.833 298,386.833 287,385.5C 291.811,375.653 297.144,365.986 303,356.5C 303.667,354.833 303.667,353.167 303,351.5C 301.667,348.833 300.333,346.167 299,343.5C 298.329,342.748 297.496,342.414 296.5,342.5C 298.265,341.539 300.265,341.205 302.5,341.5C 302.5,330.167 302.5,318.833 302.5,307.5C 308.358,307.822 314.025,307.489 319.5,306.5C 319.5,306.167 319.5,305.833 319.5,305.5C 330.344,304.084 339.011,299.084 345.5,290.5C 349.761,289.098 351.595,286.098 351,281.5C 351.849,278.439 353.349,275.772 355.5,273.5C 354.607,270.916 354.274,268.249 354.5,265.5C 356.976,261.437 359.309,257.104 361.5,252.5C 362.5,251.167 363.5,251.167 364.5,252.5C 369.451,261.805 374.451,271.138 379.5,280.5C 385.445,286.85 389.612,294.183 392,302.5C 397.177,309.19 401.011,316.523 403.5,324.5 Z"/></g>
<g><path style="opacity:0.996" fill="#d76e9c" d="M 144.5,251.5 C 144.5,252.833 144.5,254.167 144.5,255.5C 143.291,263.018 143.291,270.685 144.5,278.5C 143.883,278.389 143.383,278.056 143,277.5C 142.333,269.833 142.333,262.167 143,254.5C 143.232,253.263 143.732,252.263 144.5,251.5 Z"/></g>
<g><path style="opacity:0.996" fill="#fee1f2" d="M 348.5,244.5 C 350.114,247.392 351.447,250.392 352.5,253.5C 352.5,253.833 352.5,254.167 352.5,254.5C 352.666,260.176 352.499,265.843 352,271.5C 351.796,274.797 350.963,277.797 349.5,280.5C 351.106,268.395 350.773,256.395 348.5,244.5 Z"/></g>
<g><path style="opacity:0.996" fill="#dc709f" d="M 328.5,254.5 C 328.666,261.175 328.5,267.842 328,274.5C 327.768,275.737 327.268,276.737 326.5,277.5C 326.87,269.097 326.37,260.764 325,252.5C 323.235,253.239 321.235,253.239 319,252.5C 318.667,249.833 319.667,249.167 322,250.5C 322.684,249.216 322.517,248.049 321.5,247C 319.024,246.576 316.691,245.743 314.5,244.5C 312.547,245.156 310.547,245.489 308.5,245.5C 317.985,241.905 324.652,244.905 328.5,254.5 Z"/></g>
<g><path style="opacity:0.996" fill="#dd7fa7" d="M 168.5,250.5 C 167.46,260.178 167.46,269.845 168.5,279.5C 168.167,279.5 167.833,279.5 167.5,279.5C 164.64,269.634 164.973,259.968 168.5,250.5 Z"/></g>
<g><path style="opacity:0.996" fill="#fde1f2" d="M 328.5,254.5 C 329.222,254.918 329.722,255.584 330,256.5C 331.232,264.6 330.398,272.433 327.5,280C 327.164,281.03 326.497,281.53 325.5,281.5C 325.833,280.167 326.167,278.833 326.5,277.5C 327.268,276.737 327.768,275.737 328,274.5C 328.5,267.842 328.666,261.175 328.5,254.5 Z"/></g>
<g><path style="opacity:0.996" fill="#d86d9a" d="M 190.5,245.5 C 191.167,245.5 191.5,245.833 191.5,246.5C 192.508,248.544 193.508,250.544 194.5,252.5C 195.268,253.263 195.768,254.263 196,255.5C 196.499,260.823 196.666,266.156 196.5,271.5C 196.5,271.833 196.5,272.167 196.5,272.5C 195.686,274.631 195.186,276.964 195,279.5C 194.617,280.056 194.117,280.389 193.5,280.5C 195.048,270.421 194.715,260.421 192.5,250.5C 191.127,250.657 189.793,250.49 188.5,250C 190.107,248.951 190.773,247.451 190.5,245.5 Z"/></g>
<g><path style="opacity:0.996" fill="#d86d9c" d="M 259.5,196.5 C 260.166,204.66 260.5,212.993 260.5,221.5C 260.553,237.022 259.887,252.356 258.5,267.5C 258.5,254.167 258.5,240.833 258.5,227.5C 259.494,217.347 259.828,207.014 259.5,196.5 Z"/></g>
<g><path style="opacity:0.996" fill="#db7da5" d="M 308.5,245.5 C 307.359,248.833 305.526,251.833 303,254.5C 302.333,265.167 302.333,275.833 303,286.5C 307.401,287.467 311.901,287.8 316.5,287.5C 316.5,287.833 316.5,288.167 316.5,288.5C 311.808,289.617 307.141,289.617 302.5,288.5C 301.334,276.514 301.167,264.514 302,252.5C 303.012,248.992 305.178,246.658 308.5,245.5 Z"/></g>
<g><path style="opacity:0.996" fill="#f9d4ea" d="M 217.5,254.5 C 220.271,263.262 219.938,271.929 216.5,280.5C 217.083,271.845 217.416,263.178 217.5,254.5 Z"/></g>
<g><path style="opacity:0.996" fill="#ffdef3" d="M 194.5,250.5 C 195.966,251.347 196.8,252.68 197,254.5C 197.818,260.349 197.652,266.015 196.5,271.5C 196.666,266.156 196.499,260.823 196,255.5C 195.768,254.263 195.268,253.263 194.5,252.5C 194.5,251.833 194.5,251.167 194.5,250.5 Z"/></g>
<g><path style="opacity:0.996" fill="#fee5f4" d="M 237.5,196.5 C 244.358,195.262 251.358,195.262 258.5,196.5C 258.5,206.833 258.5,217.167 258.5,227.5C 258.5,240.833 258.5,254.167 258.5,267.5C 258.737,268.791 258.404,269.791 257.5,270.5C 250.828,271.774 244.161,271.774 237.5,270.5C 237.5,263.5 237.5,256.5 237.5,249.5C 238.185,255.567 238.851,261.734 239.5,268C 239.167,268.333 238.833,268.667 238.5,269C 243.535,269.384 248.368,269.551 253,269.5C 254,268.833 255,268.167 256,267.5C 256.8,244.834 257.133,222.167 257,199.5C 256.692,198.692 256.192,198.025 255.5,197.5C 249.561,196.543 243.561,196.21 237.5,196.5 Z"/></g>
<g><path style="opacity:0.996" fill="#d6709d" d="M 237.5,270.5 C 244.161,271.774 250.828,271.774 257.5,270.5C 254.572,271.82 251.239,272.486 247.5,272.5C 243.761,272.486 240.428,271.82 237.5,270.5 Z"/></g>
<g><path style="opacity:0.98" fill="#ebb2cc" d="M 466.5,271.5 C 466.624,277.069 465.957,282.402 464.5,287.5C 464.5,286.167 464.5,284.833 464.5,283.5C 464.5,281.833 464.5,280.167 464.5,278.5C 465.167,276.167 465.833,273.833 466.5,271.5 Z"/></g>
<g><path style="opacity:0.996" fill="#dc7fa7" d="M 259.5,282.5 C 259.167,282.5 258.833,282.5 258.5,282.5C 251.025,281.257 243.692,281.257 236.5,282.5C 235.51,288.31 235.177,294.31 235.5,300.5C 234.515,296.366 234.182,292.032 234.5,287.5C 234.244,285.208 234.577,283.041 235.5,281C 239.5,280.833 243.5,280.667 247.5,280.5C 251.893,280.509 255.893,281.176 259.5,282.5 Z"/></g>
<g><path style="opacity:0.996" fill="#fefdfe" d="M 258.5,282.5 C 258.71,289.222 258.21,295.888 257,302.5C 254.072,304.038 250.906,304.704 247.5,304.5C 243.966,304.68 240.632,304.013 237.5,302.5C 236.503,295.866 236.17,289.2 236.5,282.5C 243.692,281.257 251.025,281.257 258.5,282.5 Z"/></g>
<g><path style="opacity:0.996" fill="#f9d7eb" d="M 325.5,281.5 C 324.25,286.083 321.25,288.416 316.5,288.5C 316.5,288.167 316.5,287.833 316.5,287.5C 317.552,287.649 318.552,287.483 319.5,287C 321.37,284.96 323.37,283.127 325.5,281.5 Z"/></g>
<g><path style="opacity:0.996" fill="#e189ae" d="M 145.5,281.5 C 147.065,283.509 148.065,285.843 148.5,288.5C 146.166,286.824 145.166,284.491 145.5,281.5 Z"/></g>
<g><path style="opacity:0.996" fill="#fdddef" d="M 167.5,279.5 C 167.833,279.5 168.167,279.5 168.5,279.5C 168.903,283.228 170.57,286.228 173.5,288.5C 169.277,287.069 167.277,284.069 167.5,279.5 Z"/></g>
<g><path style="opacity:0.996" fill="#f5b9d6" d="M 349.5,282.5 C 349.573,284.027 348.906,285.027 347.5,285.5C 347.427,283.973 348.094,282.973 349.5,282.5 Z"/></g>
<g><path style="opacity:0.996" fill="#d96a9c" d="M 352.5,254.5 C 354.414,257.684 355.08,261.351 354.5,265.5C 354.274,268.249 354.607,270.916 355.5,273.5C 353.349,275.772 351.849,278.439 351,281.5C 351.595,286.098 349.761,289.098 345.5,290.5C 346.167,288.833 346.833,287.167 347.5,285.5C 348.906,285.027 349.573,284.027 349.5,282.5C 349.5,281.833 349.5,281.167 349.5,280.5C 350.963,277.797 351.796,274.797 352,271.5C 352.499,265.843 352.666,260.176 352.5,254.5 Z"/></g>
<g><path style="opacity:0.996" fill="#fce4f3" d="M 196.5,272.5 C 196.664,275.187 196.497,277.854 196,280.5C 193.595,289.446 188.095,292.446 179.5,289.5C 186.951,290.459 191.618,287.459 193.5,280.5C 194.117,280.389 194.617,280.056 195,279.5C 195.186,276.964 195.686,274.631 196.5,272.5 Z"/></g>
<g><path style="opacity:0.425" fill="#efefef" d="M 7.5,283.5 C 11.6099,305.261 17.6099,326.594 25.5,347.5C 24.2502,347.423 23.4169,346.756 23,345.5C 14.709,325.669 9.5423,305.003 7.5,283.5 Z"/></g>
<g><path style="opacity:0.996" fill="#d6709d" d="M 259.5,282.5 C 260.492,289.982 260.825,297.648 260.5,305.5C 251.868,306.578 243.202,306.744 234.5,306C 233.174,299.734 233.174,293.568 234.5,287.5C 234.182,292.032 234.515,296.366 235.5,300.5C 235.286,302.144 235.62,303.644 236.5,305C 244.195,305.691 251.861,305.525 259.5,304.5C 259.5,297.167 259.5,289.833 259.5,282.5 Z"/></g>
<g><path style="opacity:0.996" fill="#fde2f4" d="M 236.5,282.5 C 236.17,289.2 236.503,295.866 237.5,302.5C 240.632,304.013 243.966,304.68 247.5,304.5C 250.906,304.704 254.072,304.038 257,302.5C 258.21,295.888 258.71,289.222 258.5,282.5C 258.833,282.5 259.167,282.5 259.5,282.5C 259.5,289.833 259.5,297.167 259.5,304.5C 251.861,305.525 244.195,305.691 236.5,305C 235.62,303.644 235.286,302.144 235.5,300.5C 235.177,294.31 235.51,288.31 236.5,282.5 Z"/></g>
<g><path style="opacity:0.996" fill="#e4609a" d="M 155.5,297.5 C 156.875,301.092 159.542,303.092 163.5,303.5C 165.73,304.961 168.063,306.461 170.5,308C 177.524,308.831 184.524,308.664 191.5,307.5C 196.212,305.819 200.879,304.153 205.5,302.5C 205.5,301.5 205.5,300.5 205.5,299.5C 206.833,297.5 208.5,295.833 210.5,294.5C 213.242,292.575 215.908,291.241 218.5,290.5C 219.737,290.556 220.737,291.056 221.5,292C 220.106,292.956 219.439,294.289 219.5,296C 222.334,301.17 225.001,306.337 227.5,311.5C 254.267,355.999 281.601,403.332 309.5,453.5C 310.901,454.521 312.235,455.521 313.5,456.5C 306.108,458.011 298.775,459.845 291.5,462C 287.179,462.499 282.846,462.666 278.5,462.5C 276.076,456.227 272.576,450.56 268,445.5C 264.501,437.671 260.334,430.171 255.5,423C 243.819,422.833 232.152,422.333 220.5,421.5C 226.717,411.723 232.384,401.723 237.5,391.5C 233.095,383.793 228.595,376.126 224,368.5C 218.53,376.084 213.53,384.084 209,392.5C 204.394,400.713 200.061,409.046 196,417.5C 191.577,422.948 187.91,428.948 185,435.5C 184,436.5 183,437.5 182,438.5C 179.727,443.171 177.56,447.838 175.5,452.5C 174.167,452.5 172.833,452.5 171.5,452.5C 169.824,450.166 167.491,449.166 164.5,449.5C 162.716,449.107 161.05,448.441 159.5,447.5C 159.53,442.778 157.363,441.111 153,442.5C 150.113,440.593 146.947,439.593 143.5,439.5C 142.833,439.5 142.5,439.167 142.5,438.5C 140.854,436.037 138.854,434.037 136.5,432.5C 136.108,430.821 135.608,429.154 135,427.5C 128.946,417.764 123.279,407.764 118,397.5C 116.667,396.167 115.333,394.833 114,393.5C 109.605,397.624 106.772,402.624 105.5,408.5C 103.784,408.371 102.117,408.038 100.5,407.5C 96.1024,404.105 92.4357,400.105 89.5,395.5C 89.5792,394.07 89.2458,392.736 88.5,391.5C 86.1461,390.406 84.4794,388.739 83.5,386.5C 83.281,385.325 83.6143,384.325 84.5,383.5C 86.1837,385.351 88.0171,387.018 90,388.5C 90.9803,387.019 92.147,385.685 93.5,384.5C 111.435,352.953 129.602,321.62 148,290.5C 148.792,294.796 151.292,297.13 155.5,297.5 Z"/></g>
<g><path style="opacity:0.996" fill="#f372ab" d="M 58.5,351.5 C 55.6595,347.972 53.6595,343.972 52.5,339.5C 52.2916,335.879 51.2916,332.546 49.5,329.5C 50.3195,327.188 51.1529,324.854 52,322.5C 58.3392,312.81 63.8392,302.81 68.5,292.5C 69.5,292.5 70.5,292.5 71.5,292.5C 71.4914,294.308 71.9914,295.975 73,297.5C 80.0851,308.402 86.9184,319.402 93.5,330.5C 94.7644,335.34 96.7644,339.673 99.5,343.5C 85.673,343.561 72.0063,343.561 58.5,343.5C 57.8333,343.833 57.1667,344.167 56.5,344.5C 58.1733,346.523 58.8399,348.856 58.5,351.5 Z"/></g>
<g><path style="opacity:0.996" fill="#f06fa8" d="M 444.5,317.5 C 444.434,322.694 446.434,326.694 450.5,329.5C 448.855,332.599 447.688,335.932 447,339.5C 446.623,340.942 445.79,341.942 444.5,342.5C 444.5,341.5 444.5,340.5 444.5,339.5C 440.167,339.5 435.833,339.5 431.5,339.5C 419.833,339.5 408.167,339.5 396.5,339.5C 398.551,334.397 400.884,329.397 403.5,324.5C 408.792,314.597 414.625,304.931 421,295.5C 422.118,293.235 422.951,290.901 423.5,288.5C 424.822,288.33 425.989,288.663 427,289.5C 431.959,297.941 436.626,306.608 441,315.5C 441.816,316.823 442.983,317.489 444.5,317.5 Z"/></g>
<g><path style="opacity:0.996" fill="#fbddee" d="M 36.5,293.5 C 37.2254,297.676 38.5588,301.676 40.5,305.5C 40.9926,307.806 41.3259,310.139 41.5,312.5C 40.3009,309.437 38.8009,306.437 37,303.5C 36.5017,300.183 36.335,296.85 36.5,293.5 Z"/></g>
<g><path style="opacity:0.996" fill="#e486ae" d="M 464.5,283.5 C 464.5,284.833 464.5,286.167 464.5,287.5C 463.179,294.793 461.513,302.126 459.5,309.5C 459.167,309.5 458.833,309.5 458.5,309.5C 460.363,302.373 461.697,295.039 462.5,287.5C 462.66,285.847 463.326,284.514 464.5,283.5 Z"/></g>
<g><path style="opacity:0.996" fill="#d579a1" d="M 155.5,297.5 C 158.205,299.512 160.872,301.512 163.5,303.5C 159.542,303.092 156.875,301.092 155.5,297.5 Z"/></g>
<g><path style="opacity:0.996" fill="#fb7ab3" d="M 462.5,287.5 C 461.697,295.039 460.363,302.373 458.5,309.5C 457.065,310.79 456.065,312.456 455.5,314.5C 454.662,319.219 453.662,323.886 452.5,328.5C 452.5,328.833 452.5,329.167 452.5,329.5C 451.833,329.5 451.167,329.5 450.5,329.5C 446.434,326.694 444.434,322.694 444.5,317.5C 450.975,307.713 456.975,297.713 462.5,287.5 Z"/></g>
<g><path style="opacity:0.996" fill="#d96b99" d="M 205.5,299.5 C 205.5,300.5 205.5,301.5 205.5,302.5C 200.879,304.153 196.212,305.819 191.5,307.5C 184.524,308.664 177.524,308.831 170.5,308C 168.063,306.461 165.73,304.961 163.5,303.5C 178.204,308.422 192.204,307.089 205.5,299.5 Z"/></g>
<g><path style="opacity:0.996" fill="#f5c2d9" d="M 41.5,312.5 C 42.5,314.5 43.5,316.5 44.5,318.5C 44.5,319.833 44.5,321.167 44.5,322.5C 42.7234,319.495 41.7234,316.162 41.5,312.5 Z"/></g>
<g><path style="opacity:0.996" fill="#ec8cb5" d="M 458.5,309.5 C 458.014,315.112 456.681,320.446 454.5,325.5C 454.068,326.71 453.401,327.71 452.5,328.5C 453.662,323.886 454.662,319.219 455.5,314.5C 456.065,312.456 457.065,310.79 458.5,309.5 Z"/></g>
<g><path style="opacity:0.976" fill="#fde3f2" d="M 458.5,309.5 C 458.833,309.5 459.167,309.5 459.5,309.5C 459.516,315.558 457.849,320.891 454.5,325.5C 456.681,320.446 458.014,315.112 458.5,309.5 Z"/></g>
<g><path style="opacity:0.996" fill="#f6c2dc" d="M 319.5,305.5 C 319.5,305.833 319.5,306.167 319.5,306.5C 313.5,306.5 307.5,306.5 301.5,306.5C 301.828,318.012 301.495,329.346 300.5,340.5C 300.5,331.5 300.5,322.5 300.5,313.5C 300.5,310.833 300.5,308.167 300.5,305.5C 306.833,305.5 313.167,305.5 319.5,305.5 Z"/></g>
<g><path style="opacity:0.004" fill="#fefffe" d="M 0.5,324.5 C 1.83333,325.167 1.83333,325.167 0.5,324.5 Z"/></g>
<g><path style="opacity:0.235" fill="#dbdbdb" d="M 489.5,282.5 C 490.641,285.64 490.808,288.973 490,292.5C 486.923,303.72 484.423,315.054 482.5,326.5C 477.877,341.743 471.544,356.076 463.5,369.5C 463.949,366.359 464.949,363.359 466.5,360.5C 466.376,359.893 466.043,359.56 465.5,359.5C 470.538,349.422 475.038,339.089 479,328.5C 483.447,313.379 486.947,298.045 489.5,282.5 Z"/></g>
<g><path style="opacity:0.996" fill="#e17ca6" d="M 44.5,318.5 C 46.3351,321.969 48.0018,325.635 49.5,329.5C 51.2916,332.546 52.2916,335.879 52.5,339.5C 49.0607,334.175 46.3941,328.508 44.5,322.5C 44.5,321.167 44.5,319.833 44.5,318.5 Z"/></g>
<g><path style="opacity:0.993" fill="#fee7f7" d="M 450.5,335.5 C 450.66,337.199 450.494,338.866 450,340.5C 447.104,344.833 444.771,349.5 443,354.5C 442.241,356.063 441.074,357.063 439.5,357.5C 440.63,355.685 441.296,353.685 441.5,351.5C 444.533,346.147 447.533,340.813 450.5,335.5 Z"/></g>
<g><path style="opacity:0.996" fill="#fb79b2" d="M 431.5,339.5 C 435.833,339.5 440.167,339.5 444.5,339.5C 444.5,340.5 444.5,341.5 444.5,342.5C 443.213,345.406 442.213,348.406 441.5,351.5C 440.5,352.167 439.5,352.833 438.5,353.5C 433.786,353.827 429.12,353.493 424.5,352.5C 426.936,348.106 429.269,343.773 431.5,339.5 Z"/></g>
<g><path style="opacity:0.996" fill="#d5739d" d="M 319.5,306.5 C 314.025,307.489 308.358,307.822 302.5,307.5C 302.5,318.833 302.5,330.167 302.5,341.5C 300.265,341.205 298.265,341.539 296.5,342.5C 290.402,343.117 284.735,342.45 279.5,340.5C 286.5,340.5 293.5,340.5 300.5,340.5C 301.495,329.346 301.828,318.012 301.5,306.5C 307.5,306.5 313.5,306.5 319.5,306.5 Z"/></g>
<g><path style="opacity:0.996" fill="#df5b95" d="M 169.5,342.5 C 175.54,351.553 181.374,360.887 187,370.5C 190.773,377.418 194.273,384.418 197.5,391.5C 178.833,391.5 160.167,391.5 141.5,391.5C 141.351,390.448 141.517,389.448 142,388.5C 151.444,373.269 160.611,357.935 169.5,342.5 Z"/></g>
<g><path style="opacity:0.996" fill="#e784af" d="M 450.5,329.5 C 451.167,329.5 451.833,329.5 452.5,329.5C 451.833,331.5 451.167,333.5 450.5,335.5C 447.533,340.813 444.533,346.147 441.5,351.5C 442.213,348.406 443.213,345.406 444.5,342.5C 445.79,341.942 446.623,340.942 447,339.5C 447.688,335.932 448.855,332.599 450.5,329.5 Z"/></g>
<g><path style="opacity:0.602" fill="#d5d5d5" d="M 8.5,260.5 C 10.4565,295.329 19.1232,328.329 34.5,359.5C 33.9033,359.735 33.5699,360.235 33.5,361C 37.1737,369.333 41.6737,377.166 47,384.5C 47.4828,385.448 47.6495,386.448 47.5,387.5C 42.4715,381.284 37.9715,374.617 34,367.5C 31.9558,360.421 29.1225,353.755 25.5,347.5C 17.6099,326.594 11.6099,305.261 7.5,283.5C 7.5,283.167 7.5,282.833 7.5,282.5C 7.09473,269.495 6.92806,256.495 7,243.5C 7.17284,249.348 7.67284,255.015 8.5,260.5 Z"/></g>
<g><path style="opacity:0.996" fill="#d879a1" d="M 58.5,352.5 C 59.4959,352.414 60.3292,352.748 61,353.5C 63.4577,358.079 65.6243,362.746 67.5,367.5C 64.1373,362.784 61.1373,357.784 58.5,352.5 Z"/></g>
<g><path style="opacity:0.996" fill="#d56998" d="M 441.5,351.5 C 441.296,353.685 440.63,355.685 439.5,357.5C 435.991,361.855 432.991,366.522 430.5,371.5C 429.833,371.833 429.167,372.167 428.5,372.5C 428.714,370.856 428.38,369.356 427.5,368C 428.449,367.383 429.282,367.549 430,368.5C 432.979,363.576 435.813,358.576 438.5,353.5C 439.5,352.833 440.5,352.167 441.5,351.5 Z"/></g>
<g><path style="opacity:0.996" fill="#f06fa8" d="M 368.5,388.5 C 373.733,398.106 379.066,407.773 384.5,417.5C 384.957,418.298 385.624,418.631 386.5,418.5C 384.64,419.939 382.973,421.605 381.5,423.5C 379.833,424.167 378.167,424.833 376.5,425.5C 355.593,427.739 334.593,428.072 313.5,426.5C 318.696,416.094 324.362,406.094 330.5,396.5C 336.627,384.256 343.794,372.589 352,361.5C 358.526,369.97 364.026,378.97 368.5,388.5 Z"/></g>
<g><path style="opacity:0.457" fill="#cfcfcf" d="M 465.5,359.5 C 466.043,359.56 466.376,359.893 466.5,360.5C 464.949,363.359 463.949,366.359 463.5,369.5C 453.44,388.913 440.44,406.247 424.5,421.5C 426.423,418.397 428.59,415.397 431,412.5C 431.692,411.563 431.525,410.897 430.5,410.5C 444.39,395.064 456.056,378.064 465.5,359.5 Z"/></g>
<g><path style="opacity:0.996" fill="#f8d4e6" d="M 430.5,371.5 C 429.702,373.966 428.369,375.966 426.5,377.5C 426.893,375.716 427.559,374.05 428.5,372.5C 429.167,372.167 429.833,371.833 430.5,371.5 Z"/></g>
<g><path style="opacity:0.996" fill="#f070a8" d="M 278.5,462.5 C 278.833,463.167 279.167,463.833 279.5,464.5C 260.875,466.61 242.208,466.943 223.5,465.5C 219.433,463.946 215.1,463.28 210.5,463.5C 209.833,463.5 209.167,463.5 208.5,463.5C 206.485,462.076 204.152,461.41 201.5,461.5C 200.167,461.5 198.833,461.5 197.5,461.5C 192.431,459.342 187.098,457.675 181.5,456.5C 179.064,455.129 176.397,454.129 173.5,453.5C 172.508,453.672 171.842,453.338 171.5,452.5C 172.833,452.5 174.167,452.5 175.5,452.5C 177.56,447.838 179.727,443.171 182,438.5C 183,437.5 184,436.5 185,435.5C 187.91,428.948 191.577,422.948 196,417.5C 200.061,409.046 204.394,400.713 209,392.5C 213.53,384.084 218.53,376.084 224,368.5C 228.595,376.126 233.095,383.793 237.5,391.5C 232.384,401.723 226.717,411.723 220.5,421.5C 232.152,422.333 243.819,422.833 255.5,423C 260.334,430.171 264.501,437.671 268,445.5C 272.576,450.56 276.076,456.227 278.5,462.5 Z"/></g>
<g><path style="opacity:0.996" fill="#da73a0" d="M 71.5,374.5 C 73.0898,374.628 74.4231,375.295 75.5,376.5C 78.1751,379.864 80.8418,383.197 83.5,386.5C 84.4794,388.739 86.1461,390.406 88.5,391.5C 89.2458,392.736 89.5792,394.07 89.5,395.5C 88.5,394.833 87.5,394.167 86.5,393.5C 84.6281,390.418 82.2948,387.751 79.5,385.5C 77.0873,381.686 74.4207,378.019 71.5,374.5 Z"/></g>
<g><path style="opacity:0.996" fill="#fcdff0" d="M 426.5,377.5 C 425.996,381.92 423.663,384.92 419.5,386.5C 421.458,383.208 423.791,380.208 426.5,377.5 Z"/></g>
<g><path style="opacity:0.996" fill="#dd5c95" d="M 418.5,386.5 C 417.075,387.922 416.075,389.589 415.5,391.5C 413.833,392.5 412.5,393.833 411.5,395.5C 408.687,397.824 406.354,400.49 404.5,403.5C 403.833,403.5 403.5,403.833 403.5,404.5C 397.877,409.114 392.211,413.78 386.5,418.5C 385.624,418.631 384.957,418.298 384.5,417.5C 379.066,407.773 373.733,398.106 368.5,388.5C 379.814,386.788 391.481,385.788 403.5,385.5C 405.847,386.942 408.18,388.276 410.5,389.5C 410.5,388.5 410.5,387.5 410.5,386.5C 413.274,386.046 415.94,386.046 418.5,386.5 Z"/></g>
<g><path style="opacity:0.996" fill="#f5c9df" d="M 418.5,386.5 C 418.833,386.5 419.167,386.5 419.5,386.5C 418.92,388.749 417.587,390.415 415.5,391.5C 416.075,389.589 417.075,387.922 418.5,386.5 Z"/></g>
<g><path style="opacity:0.996" fill="#fce3f1" d="M 79.5,385.5 C 82.2948,387.751 84.6281,390.418 86.5,393.5C 83.821,393.475 82.4877,392.142 82.5,389.5C 81.5,389.5 80.5,389.5 79.5,389.5C 79.5,388.167 79.5,386.833 79.5,385.5 Z"/></g>
<g><path style="opacity:0.996" fill="#fb7ab3" d="M 136.5,432.5 C 133.588,432.211 131.588,430.711 130.5,428C 127.588,427.725 124.921,426.891 122.5,425.5C 117.568,423.23 113.568,419.897 110.5,415.5C 109.961,412.304 108.294,409.97 105.5,408.5C 106.772,402.624 109.605,397.624 114,393.5C 115.333,394.833 116.667,396.167 118,397.5C 123.279,407.764 128.946,417.764 135,427.5C 135.608,429.154 136.108,430.821 136.5,432.5 Z"/></g>
<g><path style="opacity:0.996" fill="#f9d7e8" d="M 411.5,395.5 C 410.559,399.381 408.226,402.047 404.5,403.5C 406.354,400.49 408.687,397.824 411.5,395.5 Z"/></g>
<g><path style="opacity:0.996" fill="#f187b6" d="M 100.5,407.5 C 102.117,408.038 103.784,408.371 105.5,408.5C 108.294,409.97 109.961,412.304 110.5,415.5C 106.296,413.967 102.963,411.3 100.5,407.5 Z"/></g>
<g><path style="opacity:0.996" fill="#fddff1" d="M 403.5,404.5 C 397.403,412.263 390.07,418.597 381.5,423.5C 382.973,421.605 384.64,419.939 386.5,418.5C 392.211,413.78 397.877,409.114 403.5,404.5 Z"/></g>
<g><path style="opacity:0.027" fill="#d9d9d9" d="M 71.5,417.5 C 72.9008,417.971 74.2342,418.638 75.5,419.5C 78.2206,422.877 80.8872,426.21 83.5,429.5C 78.5,426.5 74.5,422.5 71.5,417.5 Z"/></g>
<g><path style="opacity:0.996" fill="#ed8eb8" d="M 122.5,425.5 C 124.921,426.891 127.588,427.725 130.5,428C 131.588,430.711 133.588,432.211 136.5,432.5C 138.854,434.037 140.854,436.037 142.5,438.5C 135.143,435.159 128.476,430.826 122.5,425.5 Z"/></g>
<g><path style="opacity:0.281" fill="#c3c3c3" d="M 34.5,359.5 C 49.2717,388.281 68.9384,413.281 93.5,434.5C 92.475,434.897 92.3083,435.563 93,436.5C 95.8605,438.312 98.0271,440.646 99.5,443.5C 93.1818,439.841 87.8484,435.175 83.5,429.5C 80.8872,426.21 78.2206,422.877 75.5,419.5C 74.2342,418.638 72.9008,417.971 71.5,417.5C 66.1635,411.996 60.9968,406.33 56,400.5C 52.9178,396.266 50.0845,391.933 47.5,387.5C 47.6495,386.448 47.4828,385.448 47,384.5C 41.6737,377.166 37.1737,369.333 33.5,361C 33.5699,360.235 33.9033,359.735 34.5,359.5 Z"/></g>
<g><path style="opacity:0.996" fill="#fbe2f1" d="M 371.5,430.5 C 370.055,432.133 368.721,433.966 367.5,436C 363.232,437.467 359.232,439.467 355.5,442C 354.207,442.49 352.873,442.657 351.5,442.5C 351.5,442.167 351.5,441.833 351.5,441.5C 358.144,437.871 364.81,434.205 371.5,430.5 Z"/></g>
<g><path style="opacity:0.996" fill="#df71a0" d="M 143.5,439.5 C 146.947,439.593 150.113,440.593 153,442.5C 157.363,441.111 159.53,442.778 159.5,447.5C 154.035,445.017 148.702,442.35 143.5,439.5 Z"/></g>
<g><path style="opacity:0.041" fill="#d9d9d9" d="M 99.5,443.5 C 105.73,446.409 111.063,450.409 115.5,455.5C 109.77,451.975 104.437,447.975 99.5,443.5 Z"/></g>
<g><path style="opacity:0.996" fill="#db73a0" d="M 351.5,441.5 C 351.5,441.833 351.5,442.167 351.5,442.5C 343.079,445.974 334.745,449.64 326.5,453.5C 325.833,453.5 325.167,453.5 324.5,453.5C 330.093,450.446 335.76,447.279 341.5,444C 344.946,443.339 348.279,442.505 351.5,441.5 Z"/></g>
<g><path style="opacity:0.996" fill="#d881a6" d="M 164.5,449.5 C 167.491,449.166 169.824,450.166 171.5,452.5C 168.843,452.065 166.509,451.065 164.5,449.5 Z"/></g>
<g><path style="opacity:0.996" fill="#fbd2e8" d="M 173.5,453.5 C 176.397,454.129 179.064,455.129 181.5,456.5C 178.284,456.655 175.617,455.655 173.5,453.5 Z"/></g>
<g><path style="opacity:0.047" fill="#d4d4d4" d="M 115.5,455.5 C 117.564,455.687 119.564,456.187 121.5,457C 132.308,462.987 142.975,469.154 153.5,475.5C 139.889,470.364 127.222,463.697 115.5,455.5 Z"/></g>
<g><path style="opacity:0.996" fill="#fcdced" d="M 324.5,453.5 C 325.167,453.5 325.833,453.5 326.5,453.5C 320.328,457.747 313.328,460.08 305.5,460.5C 308.392,458.886 311.392,457.553 314.5,456.5C 318.121,456.292 321.454,455.292 324.5,453.5 Z"/></g>
<g><path style="opacity:0.273" fill="#c3c3c3" d="M 430.5,410.5 C 431.525,410.897 431.692,411.563 431,412.5C 428.59,415.397 426.423,418.397 424.5,421.5C 401.041,446.251 373.375,465.084 341.5,478C 333.7,481.212 325.7,483.712 317.5,485.5C 323.961,482.714 330.627,480.047 337.5,477.5C 338.55,476.571 338.55,475.905 337.5,475.5C 373.501,460.998 404.501,439.332 430.5,410.5 Z"/></g>
<g><path style="opacity:0.996" fill="#fddff1" d="M 181.5,456.5 C 187.098,457.675 192.431,459.342 197.5,461.5C 191.413,461.515 186.08,459.848 181.5,456.5 Z"/></g>
<g><path style="opacity:0.996" fill="#d76f9b" d="M 313.5,456.5 C 313.833,456.5 314.167,456.5 314.5,456.5C 311.392,457.553 308.392,458.886 305.5,460.5C 305.167,460.5 304.833,460.5 304.5,460.5C 298.162,461.836 291.828,463.169 285.5,464.5C 283.5,464.5 281.5,464.5 279.5,464.5C 279.167,463.833 278.833,463.167 278.5,462.5C 282.846,462.666 287.179,462.499 291.5,462C 298.775,459.845 306.108,458.011 313.5,456.5 Z"/></g>
<g><path style="opacity:0.996" fill="#fde9f7" d="M 304.5,460.5 C 298.755,463.512 292.421,465.178 285.5,465.5C 285.5,465.167 285.5,464.833 285.5,464.5C 291.828,463.169 298.162,461.836 304.5,460.5 Z"/></g>
<g><path style="opacity:0.996" fill="#f1a7c9" d="M 201.5,461.5 C 204.152,461.41 206.485,462.076 208.5,463.5C 205.848,463.59 203.515,462.924 201.5,461.5 Z"/></g>
<g><path style="opacity:0.996" fill="#e99abd" d="M 210.5,463.5 C 215.1,463.28 219.433,463.946 223.5,465.5C 222.833,465.5 222.167,465.5 221.5,465.5C 217.575,465.57 213.909,464.903 210.5,463.5 Z"/></g>
<g><path style="opacity:0.996" fill="#f3b0ce" d="M 279.5,464.5 C 281.5,464.5 283.5,464.5 285.5,464.5C 285.5,464.833 285.5,465.167 285.5,465.5C 272.702,466.747 259.869,467.414 247,467.5C 238.275,467.709 229.775,467.042 221.5,465.5C 222.167,465.5 222.833,465.5 223.5,465.5C 242.208,466.943 260.875,466.61 279.5,464.5 Z"/></g>
<g><path style="opacity:0.304" fill="#b8b8b8" d="M 337.5,475.5 C 338.55,475.905 338.55,476.571 337.5,477.5C 330.627,480.047 323.961,482.714 317.5,485.5C 304.251,489.683 290.584,492.349 276.5,493.5C 266.843,492.854 257.01,492.854 247,493.5C 241.833,493.167 236.667,492.833 231.5,492.5C 232.325,491.614 233.325,491.281 234.5,491.5C 269.945,492.758 304.279,487.425 337.5,475.5 Z"/></g>
<g><path style="opacity:0.288" fill="#b7b7b7" d="M 93.5,434.5 C 132.062,466.369 176.396,485.036 226.5,490.5C 223.375,491.479 220.042,491.813 216.5,491.5C 203.178,489.165 189.844,486.665 176.5,484C 169.02,480.59 161.353,477.757 153.5,475.5C 142.975,469.154 132.308,462.987 121.5,457C 119.564,456.187 117.564,455.687 115.5,455.5C 111.063,450.409 105.73,446.409 99.5,443.5C 98.0271,440.646 95.8605,438.312 93,436.5C 92.3083,435.563 92.475,434.897 93.5,434.5 Z"/></g>
<g><path style="opacity:0.053" fill="#dddddd" d="M 153.5,475.5 C 161.353,477.757 169.02,480.59 176.5,484C 189.844,486.665 203.178,489.165 216.5,491.5C 216.5,491.833 216.5,492.167 216.5,492.5C 199.269,491.754 182.602,488.254 166.5,482C 161.796,480.315 157.462,478.148 153.5,475.5 Z"/></g>
<g><path style="opacity:0.024" fill="#fbfbfb" d="M 61.5,499.5 C 60.8333,499.5 60.1667,499.5 59.5,499.5C 58.3778,498.053 56.8778,497.053 55,496.5C 54.015,497.814 52.8484,498.814 51.5,499.5C 34.1667,499.5 16.8333,499.5 -0.5,499.5C -0.5,495.5 -0.5,491.5 -0.5,487.5C 1.67901,487.16 3.51235,486.16 5,484.5C 7.09694,485.991 9.43028,486.991 12,487.5C 16.3488,486.735 20.8488,486.401 25.5,486.5C 29.1003,486.645 32.6003,487.311 36,488.5C 42.8071,487.428 49.6404,487.261 56.5,488C 59.7887,489.077 60.2887,490.91 58,493.5C 57.1512,490.479 55.6512,489.979 53.5,492C 56.0277,494.057 59.0277,495.057 62.5,495C 61.8333,495.333 61.1667,495.667 60.5,496C 61.3366,497.011 61.67,498.178 61.5,499.5 Z M 46.5,491.5 C 48.3547,491.272 49.1881,491.939 49,493.5C 48.3333,492.167 47.6667,492.167 47,493.5C 46.5357,492.906 46.369,492.239 46.5,491.5 Z"/></g>
<g><path style="opacity:0.012" fill="#a9a9a9" d="M 22.5,487.5 C 23.766,488.09 25.0993,488.59 26.5,489C 25.552,489.483 24.552,489.649 23.5,489.5C 23.6602,491.199 23.4935,492.866 23,494.5C 22.7489,492.567 22.2489,490.734 21.5,489C 22.056,488.617 22.3893,488.117 22.5,487.5 Z"/></g>
<g><path style="opacity:0.012" fill="#afafaf" d="M 39.5,488.5 C 40.552,488.351 41.552,488.517 42.5,489C 41.3333,489.5 40.5,490.333 40,491.5C 39.5172,490.552 39.3505,489.552 39.5,488.5 Z"/></g>
<g><path style="opacity:0.332" fill="#c7c7c7" d="M 226.5,490.5 C 229.385,490.194 232.052,490.527 234.5,491.5C 233.325,491.281 232.325,491.614 231.5,492.5C 236.667,492.833 241.833,493.167 247,493.5C 257.01,492.854 266.843,492.854 276.5,493.5C 256.9,497.282 236.9,496.949 216.5,492.5C 216.5,492.167 216.5,491.833 216.5,491.5C 220.042,491.813 223.375,491.479 226.5,490.5 Z"/></g>
<g><path style="opacity:0.035" fill="#c5c5c5" d="M 3.5,488.5 C 5.04504,489.23 5.87838,490.563 6,492.5C 6.49001,491.207 6.65668,489.873 6.5,488.5C 8.82389,488.995 10.9906,488.995 13,488.5C 13.9454,488.905 14.6121,489.572 15,490.5C 16.4443,488.845 18.2776,488.178 20.5,488.5C 20.741,491.999 19.9076,492.332 18,489.5C 15.957,491.088 16.1236,492.421 18.5,493.5C 19.6869,492.106 20.3535,492.273 20.5,494C 19.5915,496.319 17.9248,496.986 15.5,496C 16.5,495.667 17.5,495.333 18.5,495C 16.6667,494.5 15.5,493.333 15,491.5C 14.7508,492.624 14.2508,493.624 13.5,494.5C 13.1667,494.333 12.8333,494.167 12.5,494C 13.731,492.817 13.731,491.651 12.5,490.5C 10.73,495.674 9.56331,495.341 9,489.5C 8.7978,491.256 8.2978,492.922 7.5,494.5C 6.5,493.167 5.5,493.167 4.5,494.5C 3.53443,492.604 3.2011,490.604 3.5,488.5 Z"/></g>
<g><path style="opacity:0.004" fill="#fefffe" d="M 305.5,495.5 C 306.251,494.427 307.251,494.26 308.5,495C 307.552,495.483 306.552,495.649 305.5,495.5 Z"/></g>
<g><path style="opacity:0.004" fill="#fefffe" d="M 309.5,494.5 C 310.833,495.167 310.833,495.167 309.5,494.5 Z"/></g>
<g><path style="opacity:0.004" fill="#fefffe" d="M 347.5,499.5 C 337.833,499.5 328.167,499.5 318.5,499.5C 314.278,497.693 309.944,496.86 305.5,497C 311.349,496.672 316.349,495.839 320.5,494.5C 323.287,494.574 325.787,495.24 328,496.5C 329.667,496.167 331.333,495.833 333,495.5C 336.411,496.293 339.911,496.793 343.5,497C 342.833,497.333 342.167,497.667 341.5,498C 343.708,498.191 345.708,498.691 347.5,499.5 Z"/></g>
<g><path style="opacity:0.004" fill="#fefffe" d="M 150.5,496.5 C 151.833,497.167 151.833,497.167 150.5,496.5 Z"/></g>
<g><path style="opacity:0.004" fill="#fefffe" d="M 499.5,497.5 C 499.5,498.167 499.5,498.833 499.5,499.5C 499.167,499.5 498.833,499.5 498.5,499.5C 498.328,498.508 498.662,497.842 499.5,497.5 Z"/></g>
<g><path style="opacity:0.004" fill="#fefffe" d="M 220.5,499.5 C 219.833,498.167 219.833,498.167 220.5,499.5 Z"/></g>
<g><path style="opacity:0.004" fill="#fefffe" d="M 223.5,499.5 C 224.167,498.167 224.833,498.167 225.5,499.5C 224.833,499.5 224.167,499.5 223.5,499.5 Z"/></g>
</svg>
